<?xml version="1.0" encoding="utf-8"?>
<!-- Generator: Adobe Illustrator 17.0.0, SVG Export Plug-In . SVG Version: 6.00 Build 0)  -->
<!DOCTYPE svg PUBLIC "-//W3C//DTD SVG 1.1//EN" "http://www.w3.org/Graphics/SVG/1.1/DTD/svg11.dtd">
<svg version="1.1" id="Layer_1" xmlns="http://www.w3.org/2000/svg" xmlns:xlink="http://www.w3.org/1999/xlink" x="0px" y="0px"
	 width="141.73px" height="141.73px" viewBox="0 0 141.73 141.73" enable-background="new 0 0 141.73 141.73" xml:space="preserve">
<g>
	<g>
		<path fill="#1E1E1C" d="M110.702,56.106c-15.446,0-27.969,12.522-27.969,27.969c0,15.447,12.523,27.968,27.969,27.968
			c15.446,0,27.969-12.522,27.969-27.968C138.671,68.628,126.148,56.106,110.702,56.106z M135.116,82.742l-14.831,1.482l-4.341-0.71
			l4.111-1.554l14.837-1.483C135.001,81.225,135.075,81.98,135.116,82.742z M112.156,86.981l0.119,1.185l-0.697-0.969l0.038-0.234
			c0.122-0.037,0.24-0.082,0.355-0.133L112.156,86.981z M109.283,81.124l-0.119-1.187l0.695,0.966l-0.027,0.167
			c-0.144,0.043-0.282,0.099-0.415,0.163L109.283,81.124z M113.53,82.749l0.122-0.149l1.187-0.119l-0.966,0.695l-0.196-0.032
			C113.637,83.008,113.587,82.877,113.53,82.749z M113.541,82.391l-0.191,0.019c-0.075-0.122-0.155-0.241-0.246-0.352l0.075-0.166
			l1.116-0.422L113.541,82.391z M113.017,81.721l-0.173,0.065c-0.105-0.1-0.217-0.193-0.336-0.277l0.029-0.176l0.97-0.697
			L113.017,81.721z M108.735,81.67l-0.159-0.071l-0.422-1.117l0.921,0.754l0.017,0.175C108.966,81.49,108.846,81.575,108.735,81.67z
			 M108.467,81.93c-0.093,0.101-0.179,0.206-0.258,0.318l-0.212-0.034l-0.678-0.944l1.084,0.49L108.467,81.93z M107.999,82.591
			c-0.062,0.119-0.115,0.243-0.162,0.37l-0.222,0.022l-0.933-0.763l1.19,0.195L107.999,82.591z M107.722,83.353
			c-0.029,0.127-0.048,0.258-0.06,0.392l-0.216,0.081l-1.099-0.496l1.2-0.12L107.722,83.353z M107.656,84.16
			c0.005,0.131,0.019,0.258,0.04,0.383l-0.169,0.122l-1.175-0.192l1.087-0.41L107.656,84.16z M107.58,84.896l0.205,0.033
			c0.041,0.13,0.092,0.254,0.148,0.376l-0.138,0.169l-1.183,0.118L107.58,84.896z M107.907,85.681l0.22-0.022
			c0.071,0.112,0.146,0.22,0.23,0.321l-0.092,0.203l-1.113,0.421L107.907,85.681z M108.426,86.356l0.214-0.081
			c0.094,0.087,0.194,0.169,0.299,0.244l-0.037,0.23l-0.967,0.694L108.426,86.356z M112.652,86.415l0.215,0.097l0.42,1.113
			l-0.923-0.755l-0.024-0.237C112.449,86.567,112.553,86.494,112.652,86.415z M112.957,86.134c0.094-0.1,0.181-0.205,0.262-0.316
			l0.195,0.032l0.712,0.992l-1.087-0.491L112.957,86.134z M113.426,85.494c0.067-0.122,0.123-0.251,0.174-0.382l0.188-0.019
			l0.911,0.746l-1.161-0.19L113.426,85.494z M113.712,84.75c0.034-0.137,0.062-0.277,0.077-0.421l0.166-0.063l1.072,0.484
			l-1.17,0.117L113.712,84.75z M113.802,83.958c-0.003-0.148-0.017-0.292-0.04-0.434l0.165-0.119l1.177,0.193l-1.142,0.432
			L113.802,83.958z M114.177,83.226l1.096-0.788l3.943-0.394l-3.704,1.4L114.177,83.226z M115.194,82.226l-1.346,0.135l0.854-1.045
			l3.707-1.401L115.194,82.226z M114.57,81.133l-1.265,0.479l0.555-1.23l3.218-2.313L114.57,81.133z M113.685,80.238l-1.099,0.79
			l0.219-1.332l2.51-3.068L113.685,80.238z M112.599,79.603l-0.857,1.047l-0.134-1.343l1.63-3.614L112.599,79.603z M111.772,80.957
			l0.756-0.924l-0.192,1.175l-0.142,0.102c-0.13-0.07-0.266-0.129-0.405-0.18L111.772,80.957z M111.437,81.023
			c-0.144-0.034-0.29-0.059-0.44-0.072l-0.059-0.159l0.491-1.087l0.119,1.184L111.437,81.023z M110.828,80.504l-0.478-1.262
			l0.641-3.912l0.393,3.941L110.828,80.504z M110.701,80.785l-0.07,0.157c-0.151,0.005-0.299,0.02-0.444,0.046l-0.099-0.138
			l0.193-1.178L110.701,80.785z M109.908,80.599l-0.787-1.096l-0.394-3.944l1.401,3.705L109.908,80.599z M109.044,80.929
			l-1.046-0.855l-1.402-3.708l2.312,3.216L109.044,80.929z M108.294,81.472l-1.23-0.556l-2.314-3.219l3.066,2.508L108.294,81.472z
			 M107.693,82.164l-1.349-0.221l-3.033-2.482l3.61,1.63L107.693,82.164z M107.308,83.015l-1.359,0.136l-3.65-1.647l3.952,0.646
			L107.308,83.015z M107.157,83.935l-1.235,0.468l-3.908-0.639l3.899-0.39L107.157,83.935z M105.944,84.627l1.333,0.218
			l-1.099,0.789l-3.941,0.394L105.944,84.627z M106.258,85.846l1.342-0.134l-0.856,1.047l-3.704,1.4L106.258,85.846z
			 M106.875,86.942l1.263-0.478l-0.557,1.233l-3.215,2.311L106.875,86.942z M107.756,87.841l1.096-0.788l-0.218,1.335l-2.508,3.065
			L107.756,87.841z M108.84,88.481l0.854-1.044l0.135,1.347l-1.629,3.61L108.84,88.481z M109.663,87.13l-0.753,0.921l0.192-1.177
			l0.189-0.136c0.112,0.06,0.229,0.11,0.349,0.155L109.663,87.13z M110.04,87.015c0.122,0.027,0.246,0.05,0.373,0.064l0.084,0.223
			l-0.489,1.085l-0.119-1.188L110.04,87.015z M110.607,87.59l0.478,1.265l-0.64,3.907l-0.393-3.942L110.607,87.59z M110.734,87.308
			l0.099-0.219c0.127-0.005,0.25-0.017,0.373-0.036l0.142,0.197l-0.192,1.175L110.734,87.308z M111.528,87.501l0.79,1.099
			l0.393,3.94l-1.401-3.707L111.528,87.501z M112.394,87.176l1.047,0.857l1.401,3.705l-2.313-3.218L112.394,87.176z M113.148,86.639
			l1.232,0.557l2.311,3.215l-3.066-2.51L113.148,86.639z M113.718,85.899l1.319,0.216l3.099,2.536l-3.613-1.631L113.718,85.899z
			 M114.095,85.063l1.33-0.132l3.572,1.612l-3.867-0.632L114.095,85.063z M114.243,84.157l1.292-0.488l3.911,0.64l-3.985,0.399
			L114.243,84.157z M134.857,80.261l-14.013,1.4l13.174-4.98C134.387,77.846,134.667,79.042,134.857,80.261z M133.953,76.473
			l-13.948,5.272l-4.377,0.437l3.57-2.566l13.947-5.273C133.448,75.04,133.717,75.75,133.953,76.473z M133.059,74.144l-13.177,4.982
			l11.431-8.217C131.978,71.945,132.562,73.025,133.059,74.144z M131.195,70.725l-12.1,8.698l-4.115,1.555l2.783-3.402l12.098-8.696
			C130.336,69.477,130.78,70.093,131.195,70.725z M127.992,66.786c0.615,0.615,1.192,1.258,1.732,1.924l-11.427,8.214l8.909-10.889
			C127.472,66.279,127.734,66.529,127.992,66.786z M127.045,65.888l-9.433,11.528l-3.572,2.567l1.809-4.007l9.436-11.532
			C125.89,64.896,126.478,65.378,127.045,65.888z M125.109,64.314l-8.913,10.893l5.793-12.835
			C123.071,62.938,124.114,63.587,125.109,64.314z M121.795,62.272l-6.132,13.587l-2.786,3.406l0.709-4.34l6.134-13.59
			C120.425,61.615,121.118,61.927,121.795,62.272z M119.517,61.254l-5.796,12.841l2.274-13.898
			C117.198,60.461,118.374,60.814,119.517,61.254z M115.781,60.151l-2.407,14.712l-1.81,4.01l-0.438-4.375l2.407-14.712
			C114.292,59.873,115.042,59.996,115.781,60.151z M110.702,59.624c0.879,0,1.752,0.048,2.616,0.139l-2.274,13.896l-1.401-14.012
			C109.995,59.633,110.348,59.624,110.702,59.624z M109.425,59.657l1.482,14.834l-0.711,4.342l-1.555-4.113l-1.483-14.842
			C107.907,59.77,108.663,59.696,109.425,59.657z M106.942,59.911l1.402,14.021l-4.986-13.19
			C104.525,60.377,105.723,60.098,106.942,59.911z M103.15,60.809l5.278,13.962l0.437,4.379l-2.567-3.57l-5.28-13.968
			C101.716,61.31,102.427,61.042,103.15,60.809z M100.819,61.696l4.989,13.198l-8.234-11.455
			C98.613,62.774,99.697,62.192,100.819,61.696z M97.391,63.557l8.714,12.125l1.556,4.116l-3.403-2.784l-8.716-12.126
			C96.141,64.414,96.757,63.97,97.391,63.557z M93.412,66.786c0.627-0.626,1.282-1.213,1.961-1.761l8.234,11.455l-10.92-8.936
			C92.923,67.287,93.164,67.034,93.412,66.786z M92.539,67.705l11.559,9.459l2.568,3.573l-4.007-1.809l-11.566-9.464
			C91.545,68.859,92.028,68.271,92.539,67.705z M90.963,69.639l10.928,8.942l-12.879-5.813
			C89.579,71.682,90.23,70.636,90.963,69.639z M88.911,72.961l13.633,6.154l3.37,2.758l-4.384-0.717l-13.559-6.12
			C88.251,74.331,88.564,73.638,88.911,72.961z M87.89,75.239l12.808,5.781L86.83,78.751C87.095,77.551,87.449,76.378,87.89,75.239z
			 M86.785,78.965l14.682,2.402l4.048,1.827l-4.333,0.433l-14.765-2.415C86.505,80.454,86.628,79.705,86.785,78.965z M86.251,84.075
			c0-0.89,0.049-1.774,0.143-2.647l13.949,2.283l-14.069,1.406C86.26,84.771,86.251,84.424,86.251,84.075z M86.284,85.336
			l14.891-1.488l4.338,0.709l-4.115,1.556l-14.895,1.489C86.396,86.853,86.322,86.098,86.284,85.336z M86.535,87.817l14.075-1.407
			l-13.242,5.005C87.002,90.245,86.722,89.043,86.535,87.817z M87.435,91.625l14.014-5.298l4.374-0.438l-3.572,2.568l-14.015,5.298
			C87.936,93.058,87.668,92.347,87.435,91.625z M88.322,93.956l13.245-5.007l-11.495,8.263C89.404,96.17,88.82,95.081,88.322,93.956
			z M90.19,97.395l12.165-8.744l4.112-1.554l-2.786,3.405l-12.16,8.741C91.047,98.645,90.604,98.028,90.19,97.395z M93.412,101.364
			c-0.623-0.624-1.207-1.276-1.754-1.952l11.49-8.258l-8.961,10.951C93.924,101.864,93.666,101.618,93.412,101.364z M94.348,102.252
			l9.483-11.59l3.571-2.567l-1.81,4.01l-9.485,11.592C95.502,103.245,94.915,102.763,94.348,102.252z M96.283,103.826l8.963-10.953
			l-5.825,12.906C98.332,105.212,97.283,104.56,96.283,103.826z M99.615,105.88l6.165-13.659l2.783-3.402l-0.71,4.342l-6.164,13.655
			C100.983,106.537,100.291,106.225,99.615,105.88z M101.892,106.897l5.825-12.904l-2.286,13.965
			C104.223,107.694,103.04,107.34,101.892,106.897z M105.645,108.004l2.418-14.779l1.809-4.007l0.438,4.377l-2.417,14.771
			C107.135,108.28,106.386,108.159,105.645,108.004z M110.702,108.526c-0.872,0-1.737-0.047-2.592-0.137l2.283-13.956l1.406,14.068
			C111.435,108.516,111.07,108.526,110.702,108.526z M112.018,108.491l-1.488-14.889l0.71-4.339l1.556,4.116l1.488,14.888
			C113.535,108.376,112.78,108.45,112.018,108.491z M114.499,108.233l-1.406-14.066l5,13.226
			C116.923,107.762,115.723,108.043,114.499,108.233z M118.301,107.327l-5.291-13.999l-0.437-4.374l2.568,3.573l5.289,13.993
			C119.734,106.822,119.024,107.092,118.301,107.327z M120.631,106.433l-4.999-13.223l8.245,11.47
			C122.837,105.349,121.752,105.935,120.631,106.433z M124.059,104.562l-8.725-12.14l-1.555-4.113l3.404,2.785l8.72,12.133
			C125.308,103.703,124.693,104.148,124.059,104.562z M127.992,101.364c-0.613,0.613-1.254,1.189-1.917,1.727l-8.239-11.462
			l10.92,8.935C128.507,100.836,128.253,101.103,127.992,101.364z M128.902,100.403l-11.558-9.458l-2.565-3.57l4.01,1.81
			l11.557,9.457C129.895,99.247,129.412,99.835,128.902,100.403z M130.474,98.465l-10.917-8.933l12.86,5.804
			C131.852,96.422,131.204,97.468,130.474,98.465z M132.517,95.142l-13.613-6.144l-3.436-2.812l4.298,0.703l13.687,6.178
			C133.174,93.773,132.862,94.466,132.517,95.142z M133.532,92.864l-12.935-5.838l13.995,2.289
			C134.329,90.527,133.975,91.713,133.532,92.864z M134.637,89.101l-14.808-2.423l-3.969-1.791l4.419-0.442l14.718,2.408
			C134.911,87.611,134.791,88.36,134.637,89.101z M121.117,84.361l14.01-1.4c0.017,0.37,0.026,0.741,0.026,1.115
			c0,0.861-0.046,1.715-0.133,2.56L121.117,84.361z"/>
	</g>
	<path fill="#1E1E1C" d="M30.773,55.871c-15.447,0-27.969,12.522-27.969,27.969s12.522,27.969,27.969,27.969
		c15.446,0,27.969-12.522,27.969-27.969S46.22,55.871,30.773,55.871z M55.224,83.84c0,0.94-0.055,1.871-0.159,2.792l-13.877-2.271
		l14.018-1.401C55.217,83.252,55.224,83.545,55.224,83.84z M6.323,83.84c0-0.811,0.039-1.618,0.117-2.415l13.975,2.286L6.355,85.116
		C6.334,84.692,6.323,84.267,6.323,83.84z M31.889,84.376l-0.122,0.269l-0.188,0.231l-0.241,0.173l-0.278,0.106l-0.295,0.029
		l-0.378-0.062l-0.197-0.089l-0.233-0.191l-0.177-0.247l-0.108-0.283l-0.03-0.301l0.049-0.299l0.124-0.276l0.191-0.234l0.246-0.176
		l0.283-0.107l0.301-0.031l0.214,0.036l0.35,0.157l0.228,0.187l0.174,0.242l0.105,0.277l0.029,0.296L31.889,84.376z M32.347,83.893
		l0.012-0.028l0.027,0.023l-0.023,0.029L32.347,83.893z M32.452,83.66l0.039-0.086l0.112,0.051l-0.078,0.096L32.452,83.66z
		 M32.277,83.517l-0.023-0.018l0.005-0.03l0.033,0.015L32.277,83.517z M32.295,83.245l0.019-0.116l0.129,0.021l-0.061,0.133
		L32.295,83.245z M32.09,83.153l-0.028-0.013l-0.005-0.052l0.042,0.006L32.09,83.153z M31.776,82.82l-0.009-0.025l0.042-0.004
		l0.004,0.036L31.776,82.82z M31.686,82.584l-0.033-0.089l0.121-0.045l0.013,0.124L31.686,82.584z M31.462,82.606l-0.037,0.004
		l-0.015-0.022l0.039-0.015L31.462,82.606z M31.277,82.405l-0.055-0.077l0.106-0.076l0.043,0.116L31.277,82.405z M31.066,82.485
		l-0.034,0.013l-0.021-0.017l0.034-0.024L31.066,82.485z M30.623,82.491l-0.025-0.012l0.027-0.032l0.028,0.022L30.623,82.491z
		 M30.393,82.387l-0.086-0.039l0.053-0.119l0.097,0.079L30.393,82.387z M30.249,82.562l-0.007,0.008l-0.034-0.005l0.008-0.018
		L30.249,82.562z M29.986,82.528l-0.099-0.016l0.017-0.106l0.114,0.051L29.986,82.528z M29.893,82.734l-0.014,0.031l-0.034,0.004
		l0.007-0.041L29.893,82.734z M29.579,83.047l-0.032,0.011l-0.004-0.041l0.042-0.004L29.579,83.047z M29.336,83.139l-0.093,0.036
		l-0.046-0.122l0.13-0.013L29.336,83.139z M29.358,83.363l0.003,0.034l-0.027,0.02l-0.014-0.039L29.358,83.363z M29.15,83.549
		l-0.081,0.059l-0.076-0.106l0.122-0.046L29.15,83.549z M29.23,83.761l0.013,0.032l-0.021,0.026l-0.024-0.033L29.23,83.761z
		 M29.078,83.993l-0.063,0.078l-0.101-0.083l0.106-0.076L29.078,83.993z M29.21,84.176l0.02,0.027l-0.014,0.031l-0.033-0.026
		L29.21,84.176z M29.123,84.441l-0.041,0.092l-0.119-0.054l0.083-0.1L29.123,84.441z M29.298,84.584l0.026,0.021l-0.006,0.034
		l-0.037-0.018L29.298,84.584z M29.282,84.862l-0.012,0.077l-0.124-0.021l0.045-0.098L29.282,84.862z M29.488,84.955l0.031,0.014
		l0.001,0.011l-0.034-0.006L29.488,84.955z M29.792,85.245l0.012,0.034l-0.036,0.004l-0.004-0.042L29.792,85.245z M29.885,85.49
		l0.036,0.094l-0.117,0.045l-0.013-0.13L29.885,85.49z M30.109,85.469l0.027-0.003l0.021,0.03l-0.033,0.013L30.109,85.469z
		 M30.289,85.679l0.059,0.081l-0.102,0.073l-0.046-0.121L30.289,85.679z M30.501,85.599l0.025-0.01l0.029,0.024l-0.029,0.02
		L30.501,85.599z M30.934,85.608l0.033,0.015l-0.023,0.027l-0.032-0.026L30.934,85.608z M31.174,85.716l0.092,0.041l-0.051,0.114
		l-0.1-0.083L31.174,85.716z M31.317,85.541L31.35,85.5l0.03,0.005l-0.024,0.053L31.317,85.541z M31.603,85.541l0.093,0.015
		l-0.024,0.145l-0.118-0.053L31.603,85.541z M31.696,85.336l0.012-0.027l0.029-0.003l-0.006,0.036L31.696,85.336z M32.003,85.03
		l0.028-0.01l0.004,0.036l-0.037,0.003L32.003,85.03z M32.242,84.94l0.089-0.033l0.045,0.116l-0.124,0.012L32.242,84.94z
		 M32.22,84.716l-0.003-0.03l0.025-0.017l0.012,0.034L32.22,84.716z M32.425,84.537l0.076-0.056l0.072,0.101l-0.115,0.043
		L32.425,84.537z M32.345,84.326l-0.011-0.028l0.018-0.022l0.022,0.029L32.345,84.326z M32.496,84.1l0.059-0.073l0.096,0.078
		l-0.1,0.073L32.496,84.1z M32.694,83.857l0.116-0.141l0.235,0.106l-0.209,0.15L32.694,83.857z M32.952,83.542l0.222-0.272
		l0.52,0.085l-0.444,0.32L32.952,83.542z M32.747,83.449l-0.166-0.075l0.085-0.187l0.26,0.042L32.747,83.449z M32.758,82.981
		l0.135-0.298l0.523-0.052l-0.331,0.404L32.758,82.981z M32.536,82.945l-0.186-0.031l0.029-0.181l0.264-0.026L32.536,82.945z
		 M32.135,82.879l-0.1-0.017l-0.009-0.093l0.13-0.013L32.135,82.879z M32.003,82.552l-0.018-0.182l0.247-0.094l-0.042,0.257
		L32.003,82.552z M31.962,82.145l-0.032-0.326l0.427-0.307l-0.085,0.516L31.962,82.145z M31.752,82.226l-0.176,0.066l-0.065-0.171
		l0.214-0.154L31.752,82.226z M31.431,81.91l-0.116-0.307l0.334-0.407l0.052,0.52L31.431,81.91z M31.248,82.041l-0.153,0.11
		l-0.107-0.148l0.168-0.205L31.248,82.041z M30.918,82.279l-0.081,0.059l-0.072-0.06l0.081-0.1L30.918,82.279z M30.595,82.14
		l-0.141-0.116l0.108-0.241l0.152,0.211L30.595,82.14z M30.279,81.881l-0.254-0.207l0.085-0.519l0.305,0.424L30.279,81.881z
		 M30.185,82.087l-0.077,0.171l-0.167-0.075l0.043-0.261L30.185,82.087z M29.736,82.09l-0.299-0.135l-0.052-0.524l0.405,0.331
		L29.736,82.09z M29.699,82.313l-0.027,0.164l-0.187-0.031l-0.023-0.24L29.699,82.313z M29.636,82.692l-0.015,0.099l-0.1,0.01
		l-0.013-0.13L29.636,82.692z M29.304,82.822l-0.188,0.018l-0.094-0.25l0.263,0.043L29.304,82.822z M28.891,82.864l-0.332,0.033
		l-0.311-0.433l0.525,0.086L28.891,82.864z M28.972,83.075l0.066,0.176l-0.176,0.067l-0.156-0.217L28.972,83.075z M28.651,83.398
		l-0.313,0.119l-0.412-0.336l0.53-0.053L28.651,83.398z M28.782,83.581l0.111,0.154l-0.154,0.11l-0.206-0.169L28.782,83.581z
		 M28.555,83.977l-0.271,0.195l-0.485-0.219l0.498-0.188L28.555,83.977z M28.73,84.12l0.146,0.12l-0.119,0.146l-0.244-0.11
		L28.73,84.12z M28.614,84.561l-0.195,0.239l-0.516-0.085l0.407-0.292L28.614,84.561z M28.82,84.654l0.172,0.078l-0.068,0.151
		l-0.257-0.042L28.82,84.654z M28.831,85.088l-0.137,0.303l-0.52,0.051l0.333-0.407L28.831,85.088z M29.053,85.125l0.181,0.029
		l-0.03,0.185l-0.259,0.026L29.053,85.125z M29.449,85.189l0.093,0.015l0.01,0.1l-0.124,0.013L29.449,85.189z M29.574,85.522
		l0.018,0.187L29.349,85.8l0.043-0.26L29.574,85.522z M29.615,85.934l0.033,0.33l-0.424,0.306l0.084-0.52L29.615,85.934z
		 M29.826,85.853l0.171-0.064l0.067,0.176l-0.211,0.152L29.826,85.853z M30.144,86.176l0.117,0.31l-0.33,0.405l-0.052-0.524
		L30.144,86.176z M30.327,86.045l0.149-0.107l0.11,0.153l-0.165,0.201L30.327,86.045z M30.653,85.81l0.077-0.055l0.078,0.064
		l-0.079,0.097L30.653,85.81z M30.976,85.957l0.146,0.119l-0.107,0.237l-0.154-0.215L30.976,85.957z M31.296,86.22l0.257,0.21
		l-0.084,0.516l-0.308-0.427L31.296,86.22z M31.39,86.014l0.075-0.167l0.172,0.078l-0.042,0.257L31.39,86.014z M31.842,86.018
		l0.303,0.136l0.052,0.52l-0.407-0.333L31.842,86.018z M31.879,85.795l0.033-0.203l0.179,0.029l0.028,0.282L31.879,85.795z
		 M31.947,85.377l0.015-0.094l0.095-0.009l0.012,0.123L31.947,85.377z M32.273,85.252l0.182-0.018l0.091,0.242l-0.254-0.042
		L32.273,85.252z M32.679,85.211l0.323-0.032l0.302,0.42l-0.51-0.083L32.679,85.211z M32.599,85l-0.064-0.17l0.17-0.064l0.15,0.209
		L32.599,85z M32.916,84.685l0.305-0.115l0.4,0.327l-0.515,0.051L32.916,84.685z M32.785,84.502l-0.106-0.148l0.149-0.106l0.2,0.163
		L32.785,84.502z M33.01,84.116l0.264-0.19l0.471,0.213l-0.483,0.183L33.01,84.116z M33.478,83.78l0.52-0.374l1.177,0.193
		l-1.142,0.432L33.478,83.78z M34.249,83.226l1.096-0.788l3.943-0.394l-3.704,1.4L34.249,83.226z M33.944,83.176l-0.61-0.101
		l0.389-0.475l1.188-0.119L33.944,83.176z M33.919,82.361l0.854-1.045l3.707-1.401l-3.215,2.311L33.919,82.361z M33.612,82.391
		l-0.615,0.062l0.253-0.561l1.115-0.422L33.612,82.391z M32.746,82.478l-0.33,0.033l0.053-0.323l0.493-0.186L32.746,82.478z
		 M32.509,81.939l0.099-0.606l0.97-0.697l-0.49,1.085L32.509,81.939z M32.658,81.028l0.218-1.332l2.51-3.068l-1.629,3.61
		L32.658,81.028z M32.408,81.208l-0.503,0.361l-0.061-0.612l0.756-0.924L32.408,81.208z M31.814,80.65l-0.135-1.343l1.631-3.614
		l-0.64,3.909L31.814,80.65z M31.618,80.889l-0.392,0.479l-0.217-0.576l0.491-1.087L31.618,80.889z M31.067,81.563l-0.21,0.257
		l-0.191-0.266l0.217-0.479L31.067,81.563z M30.518,81.349L30.16,80.85l0.192-1.178l0.421,1.113L30.518,81.349z M29.979,80.599
		l-0.787-1.096l-0.395-3.944l1.401,3.705L29.979,80.599z M29.93,80.903l-0.1,0.61l-0.476-0.389l-0.118-1.187L29.93,80.903z
		 M29.115,80.929l-1.044-0.855l-1.402-3.708l2.312,3.216L29.115,80.929z M29.146,81.236l0.062,0.615l-0.56-0.252l-0.422-1.117
		L29.146,81.236z M29.232,82.102l0.031,0.307l-0.33-0.054l-0.177-0.468L29.232,82.102z M28.684,82.315l-0.616-0.1l-0.678-0.944
		l1.085,0.49L28.684,82.315z M27.764,82.164l-1.349-0.221l-3.033-2.482l3.61,1.63L27.764,82.164z M27.944,82.415l0.364,0.507
		l-0.621,0.062l-0.934-0.763L27.944,82.415z M27.379,83.015l-1.359,0.136l-3.65-1.647l3.953,0.646L27.379,83.015z M27.619,83.21
		l0.483,0.395l-0.584,0.221l-1.099-0.496L27.619,83.21z M27.229,83.935l-1.236,0.468l-3.908-0.639l3.898-0.39L27.229,83.935z
		 M27.51,84.062l0.569,0.257l-0.481,0.346l-1.174-0.192L27.51,84.062z M27.348,84.846l-1.099,0.789l-3.94,0.394l3.707-1.401
		L27.348,84.846z M27.652,84.896l0.607,0.099l-0.392,0.478l-1.183,0.118L27.652,84.896z M27.672,85.712l-0.856,1.047l-3.704,1.4
		l3.217-2.313L27.672,85.712z M27.979,85.681l0.612-0.061l-0.255,0.563l-1.112,0.421L27.979,85.681z M28.841,85.595l0.326-0.033
		l-0.053,0.327l-0.489,0.185L28.841,85.595z M29.073,86.139l-0.1,0.61l-0.966,0.694l0.491-1.087L29.073,86.139z M28.923,87.053
		l-0.219,1.335l-2.507,3.065l1.63-3.612L28.923,87.053z M29.174,86.874l0.5-0.359l0.061,0.615l-0.754,0.921L29.174,86.874z
		 M29.765,87.437l0.135,1.347l-1.629,3.61l0.639-3.912L29.765,87.437z M29.961,87.198l0.389-0.476l0.219,0.579l-0.489,1.085
		L29.961,87.198z M30.51,86.527l0.207-0.254l0.194,0.27l-0.215,0.476L30.51,86.527z M31.058,86.747l0.361,0.503l-0.192,1.175
		l-0.422-1.117L31.058,86.747z M31.599,87.501l0.79,1.099l0.394,3.94l-1.402-3.707L31.599,87.501z M31.649,87.196l0.099-0.607
		l0.479,0.392l0.118,1.185L31.649,87.196z M32.465,87.176l1.047,0.857l1.4,3.705L32.6,88.519L32.465,87.176z M32.435,86.87
		l-0.061-0.613l0.564,0.255l0.42,1.113L32.435,86.87z M32.348,86.007l-0.034-0.349l0.321,0.053l0.194,0.513L32.348,86.007z
		 M32.884,85.751l0.601,0.098l0.712,0.992L33.11,86.35L32.884,85.751z M33.789,85.899l1.32,0.216l3.099,2.536l-3.612-1.631
		L33.789,85.899z M33.609,85.648l-0.355-0.494l0.607-0.061l0.911,0.746L33.609,85.648z M34.166,85.063l1.331-0.132l3.571,1.612
		l-3.867-0.632L34.166,85.063z M33.928,84.867l-0.472-0.386l0.57-0.215l1.072,0.484L33.928,84.867z M34.314,84.157l1.292-0.488
		l3.911,0.64l-3.985,0.399L34.314,84.157z M36.014,83.514l4.112-1.554l14.867-1.486c0.103,0.748,0.172,1.505,0.205,2.267
		l-14.842,1.484L36.014,83.514z M40.915,81.661l13.242-5.005c0.359,1.172,0.63,2.376,0.808,3.602L40.915,81.661z M40.077,81.746
		L35.7,82.183l3.569-2.566l14.035-5.305c0.295,0.699,0.558,1.411,0.787,2.136L40.077,81.746z M39.954,79.125l11.534-8.291
		c0.662,1.05,1.239,2.144,1.729,3.276L39.954,79.125z M39.165,79.423l-4.116,1.555l2.785-3.402l12.217-8.782
		c0.471,0.601,0.91,1.22,1.318,1.857L39.165,79.423z M34.641,81.133l-1.265,0.479l0.556-1.23l3.218-2.313L34.641,81.133z
		 M34.111,79.983l1.809-4.007l9.555-11.677c0.603,0.456,1.188,0.94,1.752,1.455l-9.544,11.662L34.111,79.983z M36.267,75.208
		l5.879-13.025c1.096,0.577,2.151,1.239,3.155,1.984L36.267,75.208z M35.734,75.859l-2.787,3.406l0.71-4.34l6.223-13.79
		c0.705,0.283,1.396,0.599,2.072,0.946L35.734,75.859z M33.793,74.095l2.311-14.126c1.221,0.27,2.416,0.633,3.574,1.086
		L33.793,74.095z M33.446,74.863l-1.81,4.01l-0.437-4.375l2.446-14.942c0.756,0.088,1.507,0.211,2.246,0.368L33.446,74.863z
		 M31.457,79.271L30.9,80.504l-0.478-1.262l0.641-3.912L31.457,79.271z M30.268,78.833l-1.555-4.113l-1.507-15.074
		c0.747-0.109,1.504-0.183,2.266-0.222l1.506,15.068L30.268,78.833z M28.415,73.932l-5.065-13.4c1.185-0.376,2.4-0.661,3.64-0.853
		L28.415,73.932z M28.499,74.77l0.438,4.379l-2.567-3.57l-5.356-14.17c0.695-0.303,1.404-0.574,2.127-0.81L28.499,74.77z
		 M25.879,74.894L17.53,63.278c1.051-0.68,2.148-1.276,3.284-1.783L25.879,74.894z M26.177,75.682l1.555,4.116l-3.403-2.784
		l-8.823-12.275c0.595-0.477,1.208-0.925,1.84-1.341L26.177,75.682z M27.887,80.205l0.479,1.266l-1.23-0.556l-2.314-3.219
		L27.887,80.205z M26.738,80.737l-4.007-1.809l-11.676-9.553c0.448-0.608,0.927-1.198,1.435-1.768l11.68,9.557L26.738,80.737z
		 M21.962,78.581L8.984,72.723c0.563-1.101,1.212-2.16,1.943-3.172L21.962,78.581z M22.615,79.115l3.37,2.758l-4.383-0.717L7.963,75
		c0.274-0.708,0.582-1.403,0.921-2.082L22.615,79.115z M20.77,81.02L6.853,78.743c0.254-1.208,0.6-2.39,1.032-3.539L20.77,81.02z
		 M21.539,81.367l4.047,1.827l-4.332,0.433l-14.79-2.42c0.081-0.759,0.195-1.51,0.345-2.25L21.539,81.367z M21.246,83.847
		l4.338,0.709l-4.115,1.556L6.609,87.599c-0.115-0.748-0.195-1.502-0.24-2.265L21.246,83.847z M20.681,86.411L7.507,91.39
		c-0.377-1.163-0.665-2.358-0.863-3.577L20.681,86.411z M21.52,86.327l4.374-0.438l-3.571,2.568L8.395,93.722
		c-0.307-0.694-0.581-1.403-0.821-2.123L21.52,86.327z M21.638,88.949l-11.392,8.188c-0.67-1.029-1.258-2.103-1.762-3.215
		L21.638,88.949z M22.427,88.651l4.112-1.554l-2.786,3.405l-12.041,8.654c-0.478-0.594-0.928-1.206-1.346-1.836L22.427,88.651z
		 M26.947,86.942l1.262-0.478l-0.557,1.233l-3.215,2.311L26.947,86.942z M27.474,88.095l-1.81,4.01l-9.365,11.446
		c-0.608-0.449-1.198-0.928-1.768-1.435l9.372-11.454L27.474,88.095z M25.317,92.873l-5.74,12.716
		c-1.075-0.556-2.113-1.194-3.102-1.91L25.317,92.873z M25.851,92.221l2.783-3.402l-0.71,4.342l-6.074,13.456
		c-0.707-0.277-1.4-0.586-2.079-0.928L25.851,92.221z M27.789,93.993l-2.249,13.738c-1.189-0.259-2.354-0.605-3.486-1.036
		L27.789,93.993z M28.135,93.225l1.808-4.007l0.438,4.377l-2.379,14.54c-0.758-0.085-1.508-0.204-2.248-0.359L28.135,93.225z
		 M30.123,88.82l0.555-1.23l0.478,1.265l-0.639,3.907L30.123,88.82z M31.311,89.263l1.557,4.116l1.464,14.656
		c-0.747,0.108-1.503,0.183-2.265,0.222l-1.465-14.654L31.311,89.263z M33.164,94.167l4.92,13.016
		c-1.152,0.359-2.334,0.633-3.537,0.818L33.164,94.167z M33.081,93.328l-0.438-4.374l2.568,3.573l5.213,13.791
		c-0.697,0.3-1.407,0.567-2.131,0.799L33.081,93.328z M35.703,93.211l8.129,11.31c-1.028,0.651-2.1,1.222-3.207,1.71L35.703,93.211z
		 M35.406,92.422l-1.555-4.113l3.405,2.785l8.612,11.983c-0.598,0.472-1.217,0.913-1.852,1.323L35.406,92.422z M33.696,87.902
		l-0.477-1.262l1.233,0.557l2.311,3.215L33.696,87.902z M34.85,87.375l4.01,1.81l11.446,9.366c-0.455,0.603-0.94,1.187-1.454,1.751
		l-11.436-9.358L34.85,87.375z M39.628,89.532l12.761,5.759c-0.57,1.071-1.22,2.103-1.95,3.086L39.628,89.532z M38.976,88.998
		l-3.437-2.812l4.298,0.703l13.606,6.142c-0.285,0.703-0.603,1.393-0.954,2.067L38.976,88.998z M40.669,87.025l13.944,2.281
		c-0.273,1.203-0.638,2.379-1.088,3.521L40.669,87.025z M39.9,86.678l-3.97-1.791l4.419-0.442l14.693,2.404
		c-0.093,0.757-0.22,1.506-0.383,2.245L39.9,86.678z M49.915,68.624l-11.548,8.3l9.019-11.022c0.229,0.212,0.455,0.427,0.677,0.648
		C48.723,67.211,49.341,67.904,49.915,68.624z M33.426,59.532l-2.311,14.127l-1.423-14.246c0.359-0.015,0.719-0.025,1.082-0.025
		C31.666,59.389,32.551,59.438,33.426,59.532z M15.337,64.875l8.341,11.605l-11.044-9.037c0.275-0.303,0.558-0.601,0.85-0.892
		C14.077,65.957,14.696,65.399,15.337,64.875z M11.849,99.326l11.371-8.173l-8.852,10.817c-0.301-0.272-0.595-0.553-0.884-0.842
		C12.906,100.552,12.361,99.95,11.849,99.326z M28.219,108.159l2.246-13.726l1.383,13.833c-0.357,0.015-0.715,0.024-1.074,0.024
		C29.914,108.29,29.062,108.245,28.219,108.159z M46.039,102.941l-8.132-11.313l10.796,8.834c-0.209,0.225-0.422,0.449-0.639,0.666
		C47.418,101.774,46.741,102.378,46.039,102.941z"/>
	<path fill="#1E1E1C" d="M108.224,48.874c-0.245,0.312-0.525,0.586-0.834,0.776c-0.31,0.194-0.639,0.301-0.977,0.326l-1.62,0.039
		c-0.547,0.005-1.092,0.019-1.638,0.017c-1.093,0.004-2.185-0.006-3.276-0.055v2.638c1.091-0.049,2.183-0.059,3.276-0.055
		c0.546-0.002,1.091,0.012,1.638,0.017l1.656,0.04c0.756,0.014,1.51-0.165,2.179-0.454c0.67-0.294,1.27-0.692,1.785-1.164
		c1.033-0.942,1.769-2.148,2.129-3.503c0.175-0.678,0.258-1.397,0.199-2.128c-0.057-0.728-0.251-1.47-0.595-2.143
		c-0.339-0.675-0.818-1.278-1.368-1.756c-0.272-0.244-0.563-0.455-0.858-0.643c-0.148-0.095-0.298-0.182-0.45-0.264
		c-0.076-0.042-0.152-0.08-0.229-0.118l-0.198-0.096c-1.965-0.958-3.93-1.912-5.855-2.944l-0.001-0.001l-0.435-0.227l-0.478,0.113
		l-6.754,1.586l-0.026-0.078c-0.058-0.181-0.262-0.286-0.442-0.228l-2.849,0.91c-0.089,0.029-0.163,0.091-0.205,0.174
		c-0.043,0.083-0.052,0.179-0.023,0.268l0.087,0.274c0.047,0.146,0.182,0.244,0.335,0.244c0.037,0,0.072-0.006,0.107-0.016
		l0.468-0.15c0.158,0.479,0.316,0.957,0.473,1.435l-0.364,0.116c-0.089,0.029-0.162,0.09-0.205,0.174
		c-0.043,0.084-0.051,0.179-0.023,0.268l0.087,0.273c0.048,0.146,0.182,0.245,0.336,0.245c0.036,0,0.072-0.006,0.106-0.016
		l0.373-0.119c0.158,0.482,0.317,0.962,0.475,1.444l-0.216,0.069c-0.093,0.03-0.143,0.129-0.114,0.221l0.087,0.273
		c0.03,0.092,0.129,0.144,0.221,0.114l0.222-0.071c0.097,0.294,0.194,0.587,0.291,0.88H51.939l-0.354-1.204l0.843-0.248l-0.235-0.8
		l-0.844,0.248l-0.087,0.026l-0.081,0.024l-2.297-7.952c-0.061-0.238-0.207-0.718-1.372-1.258l0.255-0.013
		c0.447-0.023,1.057-0.276,1.388-0.575l1.595-1.438c0.476,0.01,0.828,0.035,0.917,0.086c0.307,0.176,2.199,0.22,2.902,0.22
		c0.704,0,1.804,0.044,1.98,0.044c0.176,0,0.703-0.44-0.133-0.967c-0.836-0.528-2.067-1.583-5.717-1.583c-3.65,0-10.291,0-10.819,0
		c-0.527,0-1.256-0.088-1.846-0.264c-0.689-0.205-3.166-0.352-3.562-0.176c-0.396,0.176-0.324,0.599,0.352,1.231
		c0.454,0.425,1.252,1.182,1.7,1.407c0.348,0.176,1.581,0.671,2.909,0.991l0.703,0.776c0.298,0.329,0.866,0.573,1.321,0.573
		c0.021,0,0.042-0.001,0.063-0.002l2.212-0.114c-0.017,0.104-0.026,0.211-0.026,0.32c0,0.934,0.484,1.722,1.781,1.751
		c0.437,0.01,1.088-0.125,1.562-0.335c0.006,0.003,0.012,0.007,0.018,0.011l2.256,7.814l-1.012,0.298l0.235,0.799l0.844-0.248
		l0.775,2.639c-0.01,0.018-0.02,0.036-0.03,0.053l-0.63,1.141l-1.261,2.283l-2.522,4.567l-2.549,4.551
		c-0.848,1.519-1.699,3.035-2.561,4.545l-2.578,4.535l-2.602,4.522c-1.379,2.367-2.757,4.735-4.159,7.09l-0.418-0.003
		c-0.048-0.002-0.096-0.007-0.144-0.007c-1.604,0-2.903,1.3-2.903,2.902c0,1.429,1.035,2.615,2.396,2.856l30.852,9.792l-0.008-0.011
		c0.674,0.189,1.383,0.292,2.118,0.292c0.146,0,0.29-0.005,0.434-0.013l1.22,5.084c-0.425-0.064-0.716-0.11-0.778-0.124
		c-0.307-0.066-1.253,0.022-1.275,0.594c-0.021,0.572,0.198,1.759,0.902,1.803c0.68,0.043,1.069-0.014,1.175,0.239
		c0.13,0.592,0.656,1.036,1.288,1.036c0.427,0,0.805-0.203,1.046-0.517c0.002-0.002,0.005-0.004,0.007-0.006
		c0.219-0.286,1.124-0.752,1.762-0.796c0.637-0.044,2.353-0.22,2.353-0.22s0.264-1.011-0.463-1.121
		c-0.335-0.051-1.75-0.258-3.203-0.47l-1.461-6.088c2.831-1.179,4.821-3.971,4.821-7.228c0-1.8-0.608-3.456-1.629-4.778
		l28.081-30.394l0.495,1.481l-0.349,0.111c-0.092,0.029-0.143,0.129-0.114,0.221l0.087,0.273c0.03,0.092,0.13,0.143,0.221,0.114
		l0.356-0.115l2.079,6.221l1.905,5.668l0.951,2.834l0.238,0.709l0.068,0.201l0.065,0.175l0.141,0.365
		c0.19,0.48,0.394,0.952,0.608,1.417c0.862,1.858,1.873,3.624,3.02,5.301c0.576,0.837,1.176,1.658,1.834,2.441
		c0.329,0.391,0.67,0.775,1.031,1.145c0.362,0.371,0.744,0.729,1.178,1.055l0.687-0.858c-0.684-0.607-1.304-1.369-1.881-2.145
		c-0.576-0.781-1.121-1.593-1.631-2.428c-1.014-1.671-1.934-3.407-2.679-5.196c-0.186-0.448-0.361-0.898-0.52-1.351l-0.116-0.336
		l-0.058-0.178l-0.047-0.154l-0.217-0.715l-0.868-2.86l-1.737-5.722l-1.915-6.272l0.357-0.115c0.093-0.029,0.143-0.129,0.114-0.22
		l-0.087-0.274c-0.029-0.092-0.129-0.143-0.221-0.113l-0.349,0.112l-1.39-4.553c-0.618-2.028-1.244-4.052-1.871-6.077l0.228-0.073
		c0.092-0.029,0.143-0.129,0.114-0.221l-0.087-0.273c-0.03-0.092-0.13-0.143-0.222-0.114l-0.223,0.071
		c-0.15-0.484-0.299-0.968-0.45-1.452l0.04-0.013c0.089-0.028,0.163-0.091,0.206-0.174c0.042-0.084,0.05-0.179,0.022-0.268
		l-0.015-0.048l1.792-0.421l4.458-0.823c1.694,0.882,3.363,1.812,5.032,2.742l0.098,0.054l0.066,0.04
		c0.043,0.027,0.087,0.054,0.129,0.083c0.084,0.056,0.166,0.114,0.242,0.175c0.152,0.123,0.285,0.258,0.404,0.397
		c0.229,0.287,0.384,0.596,0.482,0.922c0.19,0.648,0.197,1.38,0.045,2.152C109.039,47.455,108.709,48.244,108.224,48.874z
		 M46.374,33.946c-0.265-0.446-0.705-0.738-1.201-0.738c-0.544,0-1.018,0.349-1.271,0.865l-2.409,0.125
		c-0.308,0.017-0.759-0.171-0.965-0.399l-0.221-0.243c0.432,0.071,0.855,0.112,1.245,0.106c1.921-0.03,2.683-0.968,3.386-1.1
		c0.704-0.132,2.067-0.132,2.067-0.132c0.5,0,1.843-0.043,2.963-0.047l-1.166,1.051c-0.241,0.217-0.737,0.423-1.062,0.44
		L46.374,33.946z M36.94,74.693l2.456-4.603l2.479-4.59c0.824-1.532,1.66-3.056,2.496-4.581l2.508-4.573l2.535-4.559l1.268-2.28
		l0.018-0.033l9.299,31.628L33.658,80.96C34.742,78.865,35.841,76.779,36.94,74.693z M33.478,81.31l26.625,0.143l0.074,0.253
		c-2.048,0.848-3.657,2.539-4.396,4.641l-22.279-3.31c-0.095-0.331-0.249-0.637-0.447-0.908
		C33.197,81.857,33.337,81.584,33.478,81.31z M59.63,83.799c0.313-0.216,0.649-0.401,0.999-0.557l0.737,2.505L59.63,83.799z
		 M60.392,87.033l-3.005-0.446c0.26-0.636,0.621-1.221,1.065-1.732L60.392,87.033z M57.229,89.383l-0.283,0.059
		c-0.003-0.036-0.005-0.07-0.007-0.106L57.229,89.383z M31.319,86.678c0.73-0.155,1.358-0.586,1.772-1.176l22.254,3.579
		c0.046,2.611,1.367,4.909,3.37,6.298L31.319,86.678z M60.477,94.575c-1.493-0.716-2.657-2.009-3.206-3.586l3.674-0.76
		c0.181,0.308,0.424,0.574,0.712,0.782L60.477,94.575z M63.169,95.185c-0.407,0-0.804-0.04-1.189-0.115l0.707-2.136l0.539,2.249
		C63.207,95.184,63.188,95.185,63.169,95.185z M63.584,85.187l-0.728-2.479c0.104-0.005,0.207-0.012,0.313-0.012
		c0.411,0,0.812,0.041,1.2,0.117L63.584,85.187z M65.799,94.6l-0.492-2.048l1.377,1.546C66.405,94.29,66.109,94.455,65.799,94.6z
		 M69.394,88.48c0.011,0.153,0.018,0.306,0.018,0.461c0,1.571-0.584,3.007-1.545,4.106l-2.52-2.828
		c0.17-0.292,0.283-0.62,0.326-0.97L69.394,88.48z M65.485,84.478l0.386-1.166c0.158,0.076,0.311,0.16,0.461,0.249L65.485,84.478z
		 M68.272,85.35c0.339,0.482,0.614,1.012,0.808,1.58l-2.804,0.58L68.272,85.35z M96.434,50.735l0.06,0.178L67.428,82.375
		c-1.226-0.797-2.688-1.262-4.259-1.262c-0.058,0-0.117,0.003-0.175,0.005l-0.607-0.003l-9.672-32.895h42.88
		C95.875,49.058,96.153,49.897,96.434,50.735z"/>
</g>
</svg>
