<?xml version="1.0" encoding="utf-8"?>
<!-- Generator: Adobe Illustrator 17.0.0, SVG Export Plug-In . SVG Version: 6.00 Build 0)  -->
<!DOCTYPE svg PUBLIC "-//W3C//DTD SVG 1.1//EN" "http://www.w3.org/Graphics/SVG/1.1/DTD/svg11.dtd">
<svg version="1.1" id="Layer_1" xmlns="http://www.w3.org/2000/svg" xmlns:xlink="http://www.w3.org/1999/xlink" x="0px" y="0px"
	 width="141.73px" height="141.73px" viewBox="0 0 141.73 141.73" enable-background="new 0 0 141.73 141.73" xml:space="preserve">
<g>
	<path fill="#1E1E1C" d="M112.764,58.01c-15.446,0-27.966,12.52-27.966,27.965c0,15.446,12.52,27.966,27.966,27.966
		c15.445,0,27.966-12.52,27.966-27.966C140.73,70.529,128.21,58.01,112.764,58.01z M139.419,85.975c0,0.946-0.05,1.885-0.147,2.813
		l-15.708-2.57l15.823-1.581C139.408,85.081,139.419,85.527,139.419,85.975z M86.109,85.975c0-0.987,0.055-1.965,0.16-2.932
		l15.177,2.483l-15.314,1.53C86.118,86.697,86.109,86.337,86.109,85.975z M113.663,86.235l-0.129,0.286l-0.201,0.245l-0.256,0.185
		l-0.296,0.112l-0.314,0.032l-0.402-0.066l-0.211-0.095l-0.248-0.203l-0.19-0.263l-0.113-0.3l-0.032-0.321l0.051-0.318l0.133-0.294
		l0.204-0.249l0.262-0.189l0.301-0.114l0.321-0.032l0.228,0.038l0.372,0.167l0.243,0.199l0.186,0.258l0.111,0.295l0.031,0.315
		L113.663,86.235z M114.15,85.72l0.013-0.029l0.03,0.024l-0.025,0.03L114.15,85.72z M114.262,85.472l0.042-0.092l0.119,0.054
		l-0.083,0.102L114.262,85.472z M114.076,85.319l-0.025-0.02l0.005-0.031l0.036,0.016L114.076,85.319z M114.095,85.031l0.02-0.123
		l0.137,0.023l-0.064,0.142L114.095,85.031z M113.876,84.931l-0.029-0.012l-0.005-0.056l0.044,0.007L113.876,84.931z
		 M113.542,84.578l-0.01-0.026l0.045-0.005l0.004,0.038L113.542,84.578z M113.447,84.327l-0.036-0.093l0.129-0.049l0.013,0.132
		L113.447,84.327z M113.208,84.351l-0.039,0.004l-0.017-0.023l0.042-0.016L113.208,84.351z M113.012,84.136l-0.058-0.081
		l0.112-0.081l0.047,0.124L113.012,84.136z M112.787,84.221l-0.037,0.014l-0.022-0.018l0.037-0.026L112.787,84.221z M112.315,84.227
		l-0.026-0.012l0.029-0.035l0.029,0.024L112.315,84.227z M112.069,84.116l-0.091-0.041l0.057-0.126l0.103,0.084L112.069,84.116z
		 M111.917,84.303l-0.007,0.009l-0.036-0.006l0.008-0.019L111.917,84.303z M111.637,84.267l-0.105-0.017l0.018-0.113l0.121,0.055
		L111.637,84.267z M111.538,84.486l-0.015,0.033l-0.036,0.004l0.007-0.044L111.538,84.486z M111.203,84.819l-0.034,0.013
		l-0.005-0.044l0.044-0.004L111.203,84.819z M110.945,84.917l-0.1,0.038l-0.049-0.13l0.138-0.014L110.945,84.917z M110.969,85.157
		l0.004,0.036l-0.03,0.021l-0.016-0.041L110.969,85.157z M110.747,85.354l-0.086,0.062l-0.081-0.113l0.129-0.049L110.747,85.354z
		 M110.832,85.579l0.013,0.034l-0.023,0.028l-0.025-0.036L110.832,85.579z M110.67,85.827l-0.068,0.082l-0.107-0.088l0.112-0.081
		L110.67,85.827z M110.81,86.022l0.021,0.029l-0.014,0.033l-0.035-0.028L110.81,86.022z M110.718,86.303l-0.044,0.097l-0.127-0.057
		l0.088-0.107L110.718,86.303z M110.904,86.456l0.028,0.023l-0.006,0.036l-0.04-0.018L110.904,86.456z M110.887,86.752l-0.014,0.082
		l-0.13-0.021l0.047-0.104L110.887,86.752z M111.107,86.851l0.033,0.015l0.002,0.011l-0.038-0.006L111.107,86.851z M111.43,87.16
		l0.014,0.036l-0.038,0.004l-0.004-0.045L111.43,87.16z M111.529,87.421l0.038,0.101l-0.124,0.047l-0.014-0.137L111.529,87.421z
		 M111.768,87.397l0.029-0.003l0.023,0.032l-0.035,0.013L111.768,87.397z M111.96,87.621l0.062,0.088l-0.107,0.077l-0.049-0.129
		L111.96,87.621z M112.185,87.536l0.027-0.01l0.03,0.024l-0.031,0.023L112.185,87.536z M112.646,87.545l0.036,0.017l-0.024,0.029
		l-0.035-0.028L112.646,87.545z M112.901,87.661l0.098,0.044l-0.055,0.121l-0.107-0.088L112.901,87.661z M113.053,87.475
		l0.036-0.044l0.032,0.005l-0.026,0.057L113.053,87.475z M113.358,87.475l0.1,0.016l-0.025,0.155l-0.126-0.057L113.358,87.475z
		 M113.457,87.256l0.013-0.029l0.031-0.003l-0.006,0.039L113.457,87.256z M113.785,86.931l0.029-0.011l0.004,0.039l-0.038,0.004
		L113.785,86.931z M114.039,86.835l0.095-0.036l0.046,0.123l-0.131,0.014L114.039,86.835z M114.015,86.596l-0.003-0.031l0.026-0.018
		l0.013,0.036L114.015,86.596z M114.233,86.406l0.082-0.059l0.077,0.107l-0.123,0.047L114.233,86.406z M114.148,86.181l-0.012-0.03
		l0.02-0.024l0.023,0.031L114.148,86.181z M114.309,85.94l0.064-0.078l0.102,0.084l-0.107,0.076L114.309,85.94z M114.52,85.682
		l0.123-0.15l0.25,0.113l-0.222,0.16L114.52,85.682z M114.795,85.346l0.236-0.289l0.553,0.09l-0.473,0.341L114.795,85.346z
		 M114.576,85.247l-0.176-0.079l0.09-0.199l0.277,0.046L114.576,85.247z M114.588,84.75l0.143-0.318l0.558-0.055l-0.353,0.43
		L114.588,84.75z M114.351,84.711l-0.198-0.033l0.031-0.192l0.28-0.028L114.351,84.711z M113.924,84.641l-0.105-0.017l-0.01-0.099
		l0.137-0.014L113.924,84.641z M113.785,84.293l-0.019-0.194L114.028,84l-0.044,0.273L113.785,84.293z M113.741,83.86l-0.035-0.347
		l0.455-0.327l-0.09,0.549L113.741,83.86z M113.517,83.945l-0.187,0.07l-0.068-0.182l0.228-0.165L113.517,83.945z M113.176,83.608
		l-0.123-0.326l0.355-0.434l0.055,0.554L113.176,83.608z M112.98,83.749l-0.162,0.117l-0.114-0.158l0.179-0.218L112.98,83.749z
		 M112.629,84.001l-0.087,0.063l-0.077-0.064l0.087-0.107L112.629,84.001z M112.285,83.853l-0.151-0.123l0.116-0.257l0.162,0.225
		L112.285,83.853z M111.948,83.578l-0.269-0.22l0.09-0.553l0.325,0.452L111.948,83.578z M111.849,83.797l-0.082,0.183l-0.177-0.08
		l0.045-0.278L111.849,83.797z M111.37,83.801l-0.318-0.144l-0.056-0.558l0.431,0.352L111.37,83.801z M111.331,84.038l-0.028,0.174
		l-0.198-0.032l-0.025-0.256L111.331,84.038z M111.265,84.441l-0.017,0.105l-0.106,0.011l-0.014-0.138L111.265,84.441z
		 M110.911,84.58l-0.2,0.02l-0.1-0.266l0.281,0.046L110.911,84.58z M110.471,84.624l-0.354,0.036l-0.331-0.46l0.559,0.091
		L110.471,84.624z M110.557,84.849l0.071,0.189l-0.188,0.071l-0.166-0.231L110.557,84.849z M110.215,85.193l-0.333,0.126
		l-0.438-0.358l0.564-0.056L110.215,85.193z M110.355,85.389l0.117,0.163l-0.163,0.118l-0.22-0.18L110.355,85.389z M110.114,85.809
		l-0.289,0.208l-0.516-0.233l0.53-0.201L110.114,85.809z M110.3,85.962l0.156,0.127l-0.127,0.156l-0.26-0.117L110.3,85.962z
		 M110.176,86.431l-0.208,0.254l-0.549-0.089l0.433-0.311L110.176,86.431z M110.395,86.529l0.183,0.083l-0.073,0.161l-0.273-0.045
		L110.395,86.529z M110.407,86.993l-0.145,0.322l-0.554,0.055l0.355-0.434L110.407,86.993z M110.644,87.031l0.192,0.031
		l-0.032,0.198l-0.275,0.028L110.644,87.031z M111.065,87.1l0.099,0.016l0.011,0.107l-0.132,0.013L111.065,87.1z M111.198,87.454
		l0.02,0.199l-0.259,0.098l0.046-0.278L111.198,87.454z M111.242,87.893l0.035,0.351l-0.451,0.325l0.09-0.553L111.242,87.893z
		 M111.467,87.808l0.182-0.069l0.071,0.187l-0.225,0.161L111.467,87.808z M111.805,88.151l0.124,0.33l-0.352,0.431l-0.055-0.557
		L111.805,88.151z M112,88.011l0.158-0.114l0.117,0.162l-0.176,0.214L112,88.011z M112.347,87.762l0.081-0.059l0.083,0.068
		l-0.084,0.102L112.347,87.762z M112.691,87.917l0.155,0.127l-0.114,0.253l-0.164-0.229L112.691,87.917z M113.032,88.197
		l0.273,0.224l-0.09,0.549l-0.327-0.455L113.032,88.197z M113.131,87.978l0.08-0.178l0.182,0.082l-0.045,0.274L113.131,87.978z
		 M113.612,87.982l0.322,0.145l0.056,0.554l-0.434-0.355L113.612,87.982z M113.651,87.744l0.035-0.216l0.191,0.031l0.03,0.3
		L113.651,87.744z M113.724,87.3l0.017-0.1l0.101-0.01l0.012,0.131L113.724,87.3z M114.072,87.167l0.193-0.019l0.097,0.257
		l-0.27-0.044L114.072,87.167z M114.504,87.123l0.344-0.034l0.321,0.447l-0.543-0.089L114.504,87.123z M114.419,86.898l-0.068-0.181
		l0.181-0.069l0.16,0.223L114.419,86.898z M114.757,86.564l0.324-0.122l0.426,0.348l-0.548,0.055L114.757,86.564z M114.616,86.369
		l-0.113-0.157l0.158-0.113l0.212,0.173L114.616,86.369z M114.856,85.958l0.28-0.202l0.502,0.226l-0.515,0.194L114.856,85.958z
		 M115.355,85.599l0.554-0.398l1.253,0.205l-1.216,0.46L115.355,85.599z M116.176,85.009l1.166-0.839l4.197-0.42l-3.943,1.491
		L116.176,85.009z M115.851,84.956l-0.65-0.106l0.415-0.506l1.264-0.126L115.851,84.956z M115.824,84.089l0.91-1.112l3.946-1.492
		l-3.423,2.461L115.824,84.089z M115.497,84.122l-0.655,0.065l0.269-0.596l1.188-0.449L115.497,84.122z M114.575,84.214
		l-0.351,0.035l0.056-0.344l0.524-0.198L114.575,84.214z M114.323,83.641l0.106-0.646l1.031-0.742l-0.521,1.155L114.323,83.641z
		 M114.481,82.67l0.233-1.418l2.672-3.266l-1.735,3.843L114.481,82.67z M114.215,82.862l-0.535,0.384l-0.065-0.651l0.804-0.984
		L114.215,82.862z M113.582,82.268l-0.142-1.43l1.736-3.846l-0.681,4.161L113.582,82.268z M113.374,82.522l-0.417,0.509
		l-0.231-0.613l0.523-1.158L113.374,82.522z M112.788,83.239l-0.224,0.273l-0.204-0.283l0.231-0.511L112.788,83.239z
		 M112.203,83.011l-0.382-0.531l0.205-1.254l0.448,1.185L112.203,83.011z M111.63,82.213l-0.839-1.166l-0.419-4.199l1.491,3.944
		L111.63,82.213z M111.577,82.537l-0.106,0.65l-0.507-0.415l-0.126-1.263L111.577,82.537z M110.709,82.564l-1.112-0.91l-1.492-3.947
		l2.461,3.423L110.709,82.564z M110.742,82.891l0.065,0.656l-0.597-0.269l-0.449-1.189L110.742,82.891z M110.834,83.814l0.033,0.327
		l-0.352-0.058l-0.188-0.499L110.834,83.814z M110.251,84.04l-0.656-0.107l-0.721-1.004l1.154,0.521L110.251,84.04z M109.271,83.879
		l-1.435-0.234l-3.229-2.642l3.843,1.735L109.271,83.879z M109.462,84.146l0.388,0.54l-0.662,0.066l-0.994-0.814L109.462,84.146z
		 M108.862,84.785l-1.447,0.145l-3.886-1.754l4.208,0.688L108.862,84.785z M109.117,84.993l0.514,0.421l-0.622,0.235l-1.17-0.528
		L109.117,84.993z M108.702,85.765l-1.316,0.497l-4.16-0.68l4.15-0.415L108.702,85.765z M109.001,85.9l0.606,0.274l-0.512,0.369
		l-1.25-0.205L109.001,85.9z M108.828,86.734l-1.169,0.84l-4.195,0.419l3.946-1.492L108.828,86.734z M109.152,86.787l0.646,0.106
		l-0.418,0.509l-1.26,0.126L109.152,86.787z M109.173,87.656l-0.911,1.115l-3.943,1.491l3.426-2.462L109.173,87.656z M109.5,87.624
		l0.652-0.065l-0.271,0.6l-1.185,0.448L109.5,87.624z M110.418,87.532l0.347-0.034l-0.057,0.349l-0.521,0.197L110.418,87.532z
		 M110.665,88.11l-0.106,0.65L109.53,89.5l0.522-1.158L110.665,88.11z M110.505,89.085l-0.233,1.421l-2.669,3.262l1.735-3.845
		L110.505,89.085z M110.772,88.893l0.531-0.382l0.066,0.656l-0.802,0.98L110.772,88.893z M111.402,89.493l0.143,1.434l-1.734,3.842
		l0.681-4.164L111.402,89.493z M111.61,89.238l0.414-0.506l0.233,0.616l-0.521,1.154L111.61,89.238z M112.194,88.524l0.221-0.269
		l0.207,0.288l-0.229,0.507L112.194,88.524z M112.778,88.76l0.384,0.534l-0.204,1.25l-0.449-1.188L112.778,88.76z M113.354,89.561
		l0.841,1.169l0.419,4.195l-1.492-3.947L113.354,89.561z M113.408,89.236l0.105-0.646l0.51,0.416l0.126,1.26L113.408,89.236z
		 M114.277,89.216l1.115,0.912l1.491,3.944l-2.463-3.427L114.277,89.216z M114.244,88.889l-0.065-0.652l0.601,0.271l0.448,1.185
		L114.244,88.889z M114.153,87.97l-0.038-0.372l0.341,0.056l0.207,0.546L114.153,87.97z M114.722,87.698l0.64,0.104l0.759,1.056
		l-1.157-0.522L114.722,87.698z M115.685,87.856l1.405,0.23l3.3,2.7l-3.847-1.736L115.685,87.856z M115.494,87.589l-0.378-0.527
		l0.645-0.064l0.97,0.793L115.494,87.589z M116.088,86.965l1.415-0.142l3.803,1.716l-4.117-0.674L116.088,86.965z M115.833,86.757
		l-0.502-0.411l0.607-0.229l1.142,0.515L115.833,86.757z M116.245,86.001l1.375-0.52l4.164,0.681l-4.242,0.424L116.245,86.001z
		 M118.055,85.317l4.378-1.655l16.692-1.668c0.119,0.795,0.201,1.6,0.247,2.41l-16.695,1.669L118.055,85.317z M123.272,83.345
		l14.852-5.615c0.425,1.311,0.748,2.66,0.964,4.034L123.272,83.345z M122.379,83.434l-4.66,0.466l3.801-2.732l15.66-5.92
		c0.325,0.739,0.616,1.494,0.872,2.261L122.379,83.434z M122.249,80.644l12.847-9.234c0.759,1.159,1.424,2.371,1.989,3.625
		L122.249,80.644z M121.409,80.961l-4.382,1.656l2.964-3.622l13.54-9.732c0.51,0.631,0.99,1.282,1.437,1.952L121.409,80.961z
		 M116.593,82.782l-1.347,0.509l0.591-1.31l3.426-2.462L116.593,82.782z M116.029,81.558l1.926-4.267l10.519-12.855
		c0.649,0.475,1.278,0.982,1.888,1.519l-10.53,12.869L116.029,81.558z M118.323,76.474l6.457-14.305
		c1.217,0.615,2.388,1.328,3.505,2.131L118.323,76.474z M117.755,77.168l-2.967,3.625l0.757-4.619l6.808-15.085
		c0.754,0.291,1.494,0.616,2.219,0.975L117.755,77.168z M115.689,75.288l2.522-15.412c1.34,0.277,2.65,0.655,3.923,1.133
		L115.689,75.288z M115.32,76.107l-1.927,4.269l-0.466-4.657l2.659-16.25c0.808,0.085,1.608,0.204,2.397,0.36L115.32,76.107z
		 M113.202,80.799l-0.592,1.313l-0.508-1.344l0.681-4.164L113.202,80.799z M111.937,80.333l-1.655-4.378l-1.631-16.319
		c0.795-0.123,1.599-0.209,2.41-0.26l1.632,16.336L111.937,80.333z M109.964,75.115l-5.477-14.49
		c1.279-0.416,2.594-0.735,3.934-0.953L109.964,75.115z M110.054,76.008l0.466,4.661l-2.732-3.801l-5.782-15.295
		c0.739-0.327,1.494-0.618,2.26-0.875L110.054,76.008z M107.264,76.14l-9.008-12.534c1.132-0.737,2.314-1.385,3.537-1.937
		L107.264,76.14z M107.582,76.979l1.655,4.381l-3.622-2.964l-9.51-13.231c0.633-0.509,1.285-0.987,1.956-1.433L107.582,76.979z
		 M109.402,81.795l0.509,1.347l-1.309-0.591l-2.463-3.427L109.402,81.795z M108.178,82.36l-4.267-1.926l-12.59-10.303
		c0.479-0.645,0.992-1.272,1.533-1.878l12.59,10.302L108.178,82.36z M103.095,80.065l-14.022-6.329
		c0.614-1.185,1.32-2.327,2.113-3.415L103.095,80.065z M103.789,80.634l3.588,2.936l-4.666-0.763l-14.74-6.653
		c0.297-0.752,0.628-1.489,0.994-2.211L103.789,80.634z M101.825,82.661l-15.09-2.469c0.287-1.306,0.671-2.583,1.149-3.823
		L101.825,82.661z M102.643,83.031l4.309,1.945l-4.613,0.461l-16.045-2.625c0.095-0.806,0.227-1.604,0.393-2.392L102.643,83.031z
		 M102.332,85.671l4.619,0.756l-4.381,1.656l-16.202,1.62c-0.111-0.797-0.188-1.601-0.227-2.413L102.332,85.671z M101.731,88.4
		L87.29,93.859c-0.394-1.279-0.693-2.59-0.89-3.926L101.731,88.4z M102.624,88.311l4.657-0.465l-3.803,2.733l-15.278,5.776
		c-0.314-0.744-0.594-1.503-0.839-2.274L102.624,88.311z M102.749,91.103l-12.574,9.039c-0.721-1.144-1.349-2.339-1.884-3.573
		L102.749,91.103z M103.59,90.785l4.377-1.655l-2.966,3.625L91.7,102.315c-0.499-0.64-0.965-1.3-1.4-1.978L103.59,90.785z
		 M108.401,88.966l1.344-0.508l-0.593,1.313l-3.423,2.461L108.401,88.966z M108.962,90.195l-1.926,4.268l-10.414,12.727
		c-0.639-0.488-1.259-1.007-1.858-1.556l10.397-12.707L108.962,90.195z M106.666,95.281l-6.426,14.238
		c-1.194-0.637-2.341-1.368-3.433-2.188L106.666,95.281z M107.234,94.585l2.964-3.621l-0.757,4.623l-6.798,15.061
		c-0.747-0.307-1.48-0.648-2.197-1.022L107.234,94.585z M109.297,96.473l-2.533,15.482c-1.335-0.306-2.639-0.714-3.904-1.22
		L109.297,96.473z M109.666,95.655l1.925-4.266l0.466,4.659l-2.679,16.369c-0.805-0.102-1.602-0.239-2.388-0.412L109.666,95.655z
		 M111.783,90.965l0.591-1.31l0.509,1.347l-0.681,4.16L111.783,90.965z M113.047,91.437l1.656,4.381l1.656,16.571
		c-0.797,0.106-1.602,0.179-2.414,0.213l-1.654-16.546L113.047,91.437z M115.021,96.658l5.595,14.802
		c-1.31,0.402-2.656,0.703-4.026,0.898L115.021,96.658z M114.931,95.765l-0.465-4.657l2.735,3.804l5.913,15.642
		c-0.745,0.313-1.504,0.592-2.275,0.836L114.931,95.765z M117.724,95.64l9.264,12.889c-1.171,0.742-2.395,1.386-3.661,1.932
		L117.724,95.64z M117.406,94.8l-1.655-4.378l3.624,2.965l9.782,13.61c-0.639,0.5-1.299,0.968-1.975,1.404L117.406,94.8z
		 M115.587,89.988l-0.509-1.344l1.312,0.593l2.461,3.423L115.587,89.988z M116.815,89.427l4.27,1.927l12.994,10.633
		c-0.485,0.642-0.999,1.266-1.545,1.868l-12.987-10.627L116.815,89.427z M121.902,91.723l14.521,6.555
		c-0.639,1.224-1.374,2.402-2.205,3.524L121.902,91.723z M121.207,91.155l-3.659-2.994l4.576,0.749l15.406,6.954
		c-0.299,0.751-0.633,1.487-1,2.208L121.207,91.155z M123.01,89.055l15.808,2.586c-0.294,1.37-0.696,2.709-1.2,4.007L123.01,89.055z
		 M122.191,88.685l-4.225-1.908l4.704-0.47l16.577,2.713c-0.091,0.806-0.218,1.605-0.381,2.393L122.191,88.685z M133.386,69.082
		l-12.826,9.219l9.975-12.192c0.367,0.329,0.727,0.667,1.077,1.018C132.239,67.753,132.83,68.406,133.386,69.082z M115.355,59.445
		l-2.517,15.38l-1.546-15.463c0.488-0.027,0.979-0.041,1.472-0.041C113.635,59.32,114.499,59.362,115.355,59.445z M95.924,65.31
		l8.997,12.517L93.008,68.08c0.294-0.324,0.596-0.642,0.908-0.953C94.559,66.484,95.229,65.878,95.924,65.31z M91.845,102.498
		l12.587-9.048l-9.839,12.025c-0.228-0.213-0.455-0.429-0.677-0.651C93.176,104.083,92.486,103.306,91.845,102.498z M109.61,112.445
		l2.537-15.503l1.566,15.67c-0.315,0.011-0.631,0.018-0.948,0.018C111.701,112.63,110.649,112.567,109.61,112.445z M129.339,106.852
		l-9.269-12.896l12.305,10.069c-0.249,0.27-0.502,0.536-0.764,0.797C130.887,105.547,130.128,106.223,129.339,106.852z"/>
	<path fill="#1E1E1C" d="M114.311,56.492c-0.017-0.022-0.043-0.036-0.071-0.037c-0.495-0.024-0.992-0.037-1.475-0.037
		c-7.895,0-15.318,3.075-20.901,8.657c-5.582,5.583-8.657,13.005-8.657,20.901c0,0.949,0.047,1.917,0.139,2.876
		c0.004,0.036,0.028,0.068,0.063,0.08c0.01,0.004,0.02,0.005,0.03,0.005c0.026,0,0.051-0.011,0.069-0.03l1.393-1.496
		c0.017-0.018,0.027-0.043,0.025-0.068c-0.022-0.463-0.033-0.923-0.033-1.367c0-15.369,12.503-27.872,27.872-27.872
		c0.26,0,0.532,0.004,0.808,0.013c0.321,0,0.61-0.969,0.754-1.545C114.333,56.543,114.327,56.514,114.311,56.492z"/>
	<path fill="#3D3D3B" d="M112.764,60.818c6.72,0,13.037,2.617,17.788,7.368c4.752,4.751,7.368,11.069,7.368,17.789
		c0,6.72-2.616,13.037-7.368,17.788c-4.751,4.751-11.069,7.368-17.788,7.368c-6.72,0-13.038-2.616-17.789-7.368
		c-4.751-4.751-7.368-11.069-7.368-17.788c0-6.72,2.616-13.037,7.368-17.789C99.727,63.435,106.044,60.818,112.764,60.818
		 M112.764,59.133c-14.825,0-26.843,12.017-26.843,26.842c0,14.824,12.017,26.842,26.843,26.842
		c14.824,0,26.842-12.018,26.842-26.842C139.607,71.15,127.589,59.133,112.764,59.133L112.764,59.133z"/>
	<path fill="#1E1E1C" d="M112.764,61.942c6.419,0,12.455,2.5,16.994,7.038c4.539,4.54,7.039,10.575,7.039,16.994
		c0,6.42-2.499,12.455-7.039,16.994c-4.539,4.539-10.574,7.039-16.994,7.039c-6.42,0-12.455-2.5-16.994-7.039
		c-4.539-4.539-7.039-10.574-7.039-16.994c0-6.419,2.5-12.455,7.039-16.994C100.309,64.442,106.345,61.942,112.764,61.942
		 M112.764,60.819c-13.894,0-25.157,11.262-25.157,25.156c0,13.894,11.263,25.157,25.157,25.157
		c13.894,0,25.156-11.263,25.156-25.157C137.921,72.081,126.658,60.819,112.764,60.819L112.764,60.819z"/>
	<path fill="#1E1E1C" d="M30.198,58.01c-15.446,0-27.966,12.52-27.966,27.965c0,15.446,12.52,27.966,27.966,27.966
		c15.445,0,27.965-12.52,27.965-27.966C58.163,70.529,45.643,58.01,30.198,58.01z M56.852,85.975c0,0.946-0.05,1.885-0.147,2.813
		l-15.708-2.57l15.822-1.581C56.841,85.081,56.852,85.527,56.852,85.975z M3.543,85.975c0-0.987,0.055-1.965,0.16-2.932
		l15.177,2.483l-15.314,1.53C3.552,86.697,3.543,86.337,3.543,85.975z M31.096,86.235l-0.129,0.286l-0.201,0.245l-0.257,0.185
		l-0.296,0.112L29.9,87.094l-0.402-0.066l-0.211-0.095l-0.248-0.203l-0.189-0.263l-0.113-0.3l-0.032-0.321l0.052-0.318l0.133-0.294
		l0.203-0.249l0.263-0.189l0.301-0.114l0.321-0.032l0.228,0.038l0.372,0.167l0.243,0.199l0.186,0.258l0.111,0.295l0.032,0.315
		L31.096,86.235z M31.584,85.72l0.013-0.029l0.03,0.024l-0.024,0.03L31.584,85.72z M31.696,85.472l0.042-0.092l0.12,0.054
		l-0.083,0.102L31.696,85.472z M31.51,85.319l-0.025-0.02l0.005-0.031l0.036,0.016L31.51,85.319z M31.529,85.031l0.02-0.123
		l0.136,0.023l-0.064,0.142L31.529,85.031z M31.31,84.931l-0.029-0.012l-0.005-0.056l0.044,0.007L31.31,84.931z M30.976,84.578
		l-0.011-0.026l0.045-0.005l0.004,0.038L30.976,84.578z M30.881,84.327l-0.036-0.093l0.129-0.049l0.013,0.132L30.881,84.327z
		 M30.642,84.351l-0.039,0.004l-0.017-0.023l0.042-0.016L30.642,84.351z M30.446,84.136l-0.058-0.081l0.112-0.081l0.047,0.124
		L30.446,84.136z M30.221,84.221l-0.036,0.014l-0.023-0.018l0.037-0.026L30.221,84.221z M29.749,84.227l-0.027-0.012l0.029-0.035
		l0.029,0.024L29.749,84.227z M29.503,84.116l-0.092-0.041l0.057-0.126l0.103,0.084L29.503,84.116z M29.351,84.303l-0.007,0.009
		l-0.036-0.006l0.008-0.019L29.351,84.303z M29.071,84.267l-0.105-0.017l0.018-0.113l0.121,0.055L29.071,84.267z M28.972,84.486
		l-0.015,0.033l-0.036,0.004l0.007-0.044L28.972,84.486z M28.637,84.819l-0.034,0.013l-0.004-0.044l0.044-0.004L28.637,84.819z
		 M28.378,84.917l-0.1,0.038l-0.049-0.13l0.138-0.014L28.378,84.917z M28.402,85.157l0.004,0.036l-0.029,0.021l-0.016-0.041
		L28.402,85.157z M28.181,85.354l-0.086,0.062l-0.081-0.113l0.13-0.049L28.181,85.354z M28.266,85.579l0.013,0.034l-0.023,0.028
		l-0.026-0.036L28.266,85.579z M28.104,85.827l-0.067,0.082l-0.108-0.088l0.113-0.081L28.104,85.827z M28.244,86.022l0.021,0.029
		l-0.015,0.033l-0.034-0.028L28.244,86.022z M28.151,86.303l-0.044,0.097l-0.126-0.057l0.088-0.107L28.151,86.303z M28.338,86.456
		l0.028,0.023l-0.006,0.036l-0.04-0.018L28.338,86.456z M28.321,86.752l-0.014,0.082l-0.131-0.021l0.047-0.104L28.321,86.752z
		 M28.54,86.851l0.033,0.015l0.001,0.011l-0.037-0.006L28.54,86.851z M28.864,87.16l0.014,0.036L28.84,87.2l-0.005-0.045
		L28.864,87.16z M28.963,87.421L29,87.521l-0.123,0.047l-0.014-0.137L28.963,87.421z M29.202,87.397l0.029-0.003l0.023,0.032
		l-0.035,0.013L29.202,87.397z M29.394,87.621l0.062,0.088l-0.107,0.077L29.3,87.656L29.394,87.621z M29.619,87.536l0.027-0.01
		l0.03,0.024l-0.031,0.023L29.619,87.536z M30.081,87.545l0.035,0.017l-0.024,0.029l-0.035-0.028L30.081,87.545z M30.335,87.661
		l0.098,0.044l-0.055,0.121l-0.107-0.088L30.335,87.661z M30.487,87.475l0.036-0.044l0.032,0.005l-0.025,0.057L30.487,87.475z
		 M30.791,87.475l0.1,0.016l-0.025,0.155l-0.125-0.057L30.791,87.475z M30.891,87.256l0.013-0.029l0.031-0.003l-0.006,0.039
		L30.891,87.256z M31.218,86.931l0.03-0.011l0.004,0.039l-0.039,0.004L31.218,86.931z M31.473,86.835l0.095-0.036l0.047,0.123
		l-0.131,0.014L31.473,86.835z M31.449,86.596l-0.003-0.031l0.026-0.018l0.013,0.036L31.449,86.596z M31.666,86.406l0.082-0.059
		l0.077,0.107L31.702,86.5L31.666,86.406z M31.581,86.181l-0.011-0.03l0.02-0.024l0.023,0.031L31.581,86.181z M31.742,85.94
		l0.064-0.078l0.102,0.084l-0.107,0.076L31.742,85.94z M31.953,85.682l0.123-0.15l0.25,0.113l-0.222,0.16L31.953,85.682z
		 M32.228,85.346l0.237-0.289l0.553,0.09l-0.474,0.341L32.228,85.346z M32.01,85.247l-0.177-0.079l0.09-0.199l0.277,0.046
		L32.01,85.247z M32.022,84.75l0.144-0.318l0.557-0.055l-0.352,0.43L32.022,84.75z M31.785,84.711l-0.198-0.033l0.032-0.192
		l0.28-0.028L31.785,84.711z M31.358,84.641l-0.106-0.017l-0.01-0.099l0.137-0.014L31.358,84.641z M31.218,84.293l-0.019-0.194
		L31.462,84l-0.045,0.273L31.218,84.293z M31.175,83.86l-0.035-0.347l0.455-0.327l-0.09,0.549L31.175,83.86z M30.95,83.945
		l-0.187,0.07l-0.069-0.182l0.228-0.165L30.95,83.945z M30.61,83.608l-0.124-0.326l0.355-0.434l0.056,0.554L30.61,83.608z
		 M30.414,83.749l-0.163,0.117l-0.113-0.158l0.178-0.218L30.414,83.749z M30.063,84.001l-0.087,0.063l-0.078-0.064l0.087-0.107
		L30.063,84.001z M29.719,83.853l-0.151-0.123l0.116-0.257l0.162,0.225L29.719,83.853z M29.382,83.578l-0.27-0.22l0.091-0.553
		l0.324,0.452L29.382,83.578z M29.283,83.797L29.2,83.979l-0.177-0.08l0.046-0.278L29.283,83.797z M28.804,83.801l-0.318-0.144
		l-0.056-0.558l0.431,0.352L28.804,83.801z M28.765,84.038l-0.028,0.174l-0.198-0.032l-0.025-0.256L28.765,84.038z M28.699,84.441
		l-0.017,0.105l-0.106,0.011l-0.014-0.138L28.699,84.441z M28.345,84.58l-0.2,0.02l-0.1-0.266l0.28,0.046L28.345,84.58z
		 M27.905,84.624l-0.354,0.036l-0.331-0.46l0.559,0.091L27.905,84.624z M27.991,84.849l0.071,0.189l-0.188,0.071l-0.166-0.231
		L27.991,84.849z M27.649,85.193l-0.333,0.126l-0.438-0.358l0.563-0.056L27.649,85.193z M27.789,85.389l0.117,0.163l-0.163,0.118
		l-0.22-0.18L27.789,85.389z M27.548,85.809l-0.289,0.208l-0.517-0.233l0.53-0.201L27.548,85.809z M27.734,85.962l0.156,0.127
		l-0.127,0.156l-0.26-0.117L27.734,85.962z M27.61,86.431l-0.208,0.254l-0.55-0.089l0.433-0.311L27.61,86.431z M27.829,86.529
		l0.184,0.083l-0.073,0.161l-0.273-0.045L27.829,86.529z M27.841,86.993l-0.145,0.322l-0.554,0.055l0.355-0.434L27.841,86.993z
		 M28.078,87.031l0.192,0.031l-0.032,0.198l-0.275,0.028L28.078,87.031z M28.499,87.1l0.099,0.016l0.011,0.107l-0.132,0.013
		L28.499,87.1z M28.632,87.454l0.02,0.199l-0.259,0.098l0.045-0.278L28.632,87.454z M28.676,87.893l0.035,0.351l-0.452,0.325
		l0.09-0.553L28.676,87.893z M28.901,87.808l0.182-0.069l0.071,0.187l-0.225,0.161L28.901,87.808z M29.239,88.151l0.125,0.33
		l-0.352,0.431l-0.056-0.557L29.239,88.151z M29.434,88.011l0.158-0.114l0.117,0.162l-0.175,0.214L29.434,88.011z M29.781,87.762
		l0.081-0.059l0.083,0.068l-0.084,0.102L29.781,87.762z M30.125,87.917l0.155,0.127l-0.114,0.253l-0.164-0.229L30.125,87.917z
		 M30.466,88.197l0.273,0.224l-0.09,0.549l-0.327-0.455L30.466,88.197z M30.565,87.978l0.08-0.178l0.182,0.082l-0.044,0.274
		L30.565,87.978z M31.046,87.982l0.322,0.145l0.055,0.554l-0.434-0.355L31.046,87.982z M31.085,87.744l0.035-0.216l0.191,0.031
		l0.03,0.3L31.085,87.744z M31.158,87.3l0.016-0.1l0.101-0.01l0.013,0.131L31.158,87.3z M31.506,87.167l0.193-0.019l0.097,0.257
		l-0.27-0.044L31.506,87.167z M31.938,87.123l0.344-0.034l0.322,0.447l-0.543-0.089L31.938,87.123z M31.853,86.898l-0.068-0.181
		l0.181-0.069l0.16,0.223L31.853,86.898z M32.191,86.564l0.324-0.122l0.426,0.348l-0.548,0.055L32.191,86.564z M32.05,86.369
		l-0.113-0.157l0.158-0.113l0.212,0.173L32.05,86.369z M32.289,85.958l0.281-0.202l0.502,0.226l-0.515,0.194L32.289,85.958z
		 M32.789,85.599l0.554-0.398l1.253,0.205l-1.216,0.46L32.789,85.599z M33.609,85.009l1.167-0.839l4.198-0.42l-3.943,1.491
		L33.609,85.009z M33.285,84.956l-0.65-0.106l0.415-0.506l1.264-0.126L33.285,84.956z M33.257,84.089l0.91-1.112l3.947-1.492
		l-3.423,2.461L33.257,84.089z M32.931,84.122l-0.655,0.065l0.269-0.596l1.188-0.449L32.931,84.122z M32.009,84.214l-0.351,0.035
		l0.056-0.344l0.524-0.198L32.009,84.214z M31.757,83.641l0.105-0.646l1.032-0.742l-0.521,1.155L31.757,83.641z M31.916,82.67
		l0.232-1.418l2.673-3.266l-1.735,3.843L31.916,82.67z M31.649,82.862l-0.535,0.384l-0.065-0.651l0.805-0.984L31.649,82.862z
		 M31.016,82.268l-0.143-1.43l1.736-3.846l-0.681,4.161L31.016,82.268z M30.808,82.522l-0.417,0.509l-0.232-0.613l0.523-1.158
		L30.808,82.522z M30.221,83.239l-0.224,0.273l-0.204-0.283l0.231-0.511L30.221,83.239z M29.637,83.011l-0.382-0.531l0.205-1.254
		l0.448,1.185L29.637,83.011z M29.063,82.213l-0.839-1.166l-0.419-4.199l1.49,3.944L29.063,82.213z M29.01,82.537l-0.106,0.65
		l-0.507-0.415l-0.126-1.263L29.01,82.537z M28.143,82.564l-1.112-0.91l-1.492-3.947L28,81.131L28.143,82.564z M28.176,82.891
		l0.065,0.656l-0.597-0.269l-0.449-1.189L28.176,82.891z M28.268,83.814l0.033,0.327l-0.352-0.058l-0.188-0.499L28.268,83.814z
		 M27.684,84.04l-0.656-0.107l-0.722-1.004l1.154,0.521L27.684,84.04z M26.704,83.879l-1.435-0.234l-3.229-2.642l3.843,1.735
		L26.704,83.879z M26.896,84.146l0.388,0.54l-0.661,0.066l-0.994-0.814L26.896,84.146z M26.296,84.785l-1.447,0.145l-3.886-1.754
		l4.208,0.688L26.296,84.785z M26.55,84.993l0.514,0.421l-0.621,0.235l-1.171-0.528L26.55,84.993z M26.136,85.765l-1.316,0.497
		l-4.161-0.68l4.151-0.415L26.136,85.765z M26.435,85.9l0.606,0.274l-0.513,0.369l-1.25-0.205L26.435,85.9z M26.261,86.734
		l-1.169,0.84l-4.195,0.419l3.947-1.492L26.261,86.734z M26.586,86.787l0.646,0.106l-0.417,0.509l-1.26,0.126L26.586,86.787z
		 M26.606,87.656l-0.912,1.115l-3.943,1.491l3.425-2.462L26.606,87.656z M26.933,87.624l0.652-0.065l-0.271,0.6l-1.185,0.448
		L26.933,87.624z M27.852,87.532l0.347-0.034l-0.057,0.349l-0.52,0.197L27.852,87.532z M28.098,88.11l-0.106,0.65L26.964,89.5
		l0.522-1.158L28.098,88.11z M27.939,89.085l-0.232,1.421l-2.67,3.262l1.736-3.845L27.939,89.085z M28.206,88.893l0.531-0.382
		l0.066,0.656l-0.802,0.98L28.206,88.893z M28.836,89.493l0.143,1.434l-1.734,3.842l0.681-4.164L28.836,89.493z M29.044,89.238
		l0.414-0.506l0.233,0.616l-0.522,1.154L29.044,89.238z M29.628,88.524l0.221-0.269l0.207,0.288l-0.229,0.507L29.628,88.524z
		 M30.212,88.76l0.384,0.534l-0.205,1.25l-0.449-1.188L30.212,88.76z M30.788,89.561l0.841,1.169l0.419,4.195l-1.491-3.947
		L30.788,89.561z M30.841,89.236l0.105-0.646l0.51,0.416l0.126,1.26L30.841,89.236z M31.711,89.216l1.115,0.912l1.49,3.944
		l-2.462-3.427L31.711,89.216z M31.678,88.889l-0.065-0.652l0.6,0.271l0.448,1.185L31.678,88.889z M31.586,87.97l-0.037-0.372
		l0.341,0.056l0.207,0.546L31.586,87.97z M32.155,87.698l0.64,0.104l0.758,1.056l-1.157-0.522L32.155,87.698z M33.119,87.856
		l1.405,0.23l3.3,2.7l-3.846-1.736L33.119,87.856z M32.927,87.589l-0.379-0.527l0.646-0.064l0.97,0.793L32.927,87.589z
		 M33.521,86.965l1.416-0.142l3.803,1.716l-4.117-0.674L33.521,86.965z M33.267,86.757l-0.502-0.411l0.607-0.229l1.142,0.515
		L33.267,86.757z M33.678,86.001l1.375-0.52l4.164,0.681l-4.242,0.424L33.678,86.001z M35.489,85.317l4.378-1.655l16.692-1.668
		c0.119,0.795,0.2,1.6,0.247,2.41l-16.694,1.669L35.489,85.317z M40.706,83.345l14.851-5.615c0.425,1.311,0.747,2.66,0.964,4.034
		L40.706,83.345z M39.813,83.434l-4.66,0.466l3.801-2.732l15.66-5.92c0.325,0.739,0.616,1.494,0.872,2.261L39.813,83.434z
		 M39.682,80.644l12.847-9.234c0.759,1.159,1.424,2.371,1.989,3.625L39.682,80.644z M38.843,80.961l-4.382,1.656l2.964-3.622
		l13.54-9.732c0.51,0.631,0.99,1.282,1.437,1.952L38.843,80.961z M34.027,82.782l-1.347,0.509l0.592-1.31l3.425-2.462L34.027,82.782
		z M33.463,81.558l1.926-4.267l10.518-12.855c0.649,0.475,1.279,0.982,1.888,1.519L37.266,78.824L33.463,81.558z M35.757,76.474
		l6.457-14.305c1.216,0.615,2.387,1.328,3.504,2.131L35.757,76.474z M35.189,77.168l-2.966,3.625l0.755-4.619l6.808-15.085
		c0.754,0.291,1.494,0.616,2.219,0.975L35.189,77.168z M33.124,75.288l2.521-15.412c1.34,0.277,2.651,0.655,3.924,1.133
		L33.124,75.288z M32.754,76.107l-1.927,4.269l-0.465-4.657l2.659-16.25c0.808,0.085,1.607,0.204,2.397,0.36L32.754,76.107z
		 M30.636,80.799l-0.592,1.313l-0.508-1.344l0.682-4.164L30.636,80.799z M29.371,80.333l-1.655-4.378l-1.631-16.319
		c0.795-0.123,1.599-0.209,2.41-0.26l1.633,16.336L29.371,80.333z M27.398,75.115l-5.477-14.49c1.279-0.416,2.594-0.735,3.934-0.953
		L27.398,75.115z M27.488,76.008l0.466,4.661l-2.732-3.801L19.44,61.573c0.739-0.327,1.494-0.618,2.261-0.875L27.488,76.008z
		 M24.698,76.14L15.69,63.606c1.132-0.737,2.314-1.385,3.538-1.937L24.698,76.14z M25.015,76.979l1.656,4.381l-3.622-2.964
		l-9.511-13.231c0.633-0.509,1.285-0.987,1.955-1.433L25.015,76.979z M26.836,81.795l0.509,1.347l-1.309-0.591l-2.463-3.427
		L26.836,81.795z M25.612,82.36l-4.267-1.926L8.755,70.132c0.479-0.645,0.992-1.272,1.533-1.878l12.59,10.302L25.612,82.36z
		 M20.528,80.065L6.506,73.736c0.614-1.185,1.32-2.327,2.113-3.415L20.528,80.065z M21.223,80.634l3.588,2.936l-4.666-0.763
		L5.405,76.154c0.297-0.752,0.628-1.489,0.994-2.211L21.223,80.634z M19.259,82.661L4.17,80.192
		c0.287-1.306,0.671-2.583,1.149-3.823L19.259,82.661z M20.077,83.031l4.309,1.945l-4.613,0.461L3.729,82.812
		c0.095-0.806,0.226-1.604,0.392-2.392L20.077,83.031z M19.766,85.671l4.619,0.756l-4.381,1.656l-16.202,1.62
		c-0.111-0.797-0.188-1.601-0.227-2.413L19.766,85.671z M19.164,88.4L4.724,93.859c-0.394-1.279-0.693-2.59-0.89-3.926L19.164,88.4z
		 M20.057,88.311l4.657-0.465l-3.803,2.733L5.633,96.355c-0.315-0.744-0.595-1.503-0.84-2.274L20.057,88.311z M20.183,91.103
		l-12.575,9.039c-0.721-1.144-1.349-2.339-1.884-3.573L20.183,91.103z M21.023,90.785l4.378-1.655l-2.966,3.625l-13.301,9.561
		c-0.499-0.64-0.965-1.3-1.4-1.978L21.023,90.785z M25.835,88.966l1.344-0.508l-0.593,1.313l-3.423,2.461L25.835,88.966z
		 M26.395,90.195l-1.926,4.268l-10.414,12.727c-0.639-0.488-1.259-1.007-1.858-1.556l10.397-12.707L26.395,90.195z M24.1,95.281
		l-6.426,14.238c-1.193-0.637-2.34-1.368-3.433-2.188L24.1,95.281z M24.668,94.585l2.963-3.621l-0.757,4.623l-6.798,15.061
		c-0.747-0.307-1.481-0.648-2.197-1.022L24.668,94.585z M26.73,96.473l-2.533,15.482c-1.335-0.306-2.639-0.714-3.904-1.22
		L26.73,96.473z M27.099,95.655l1.926-4.266l0.466,4.659l-2.678,16.369c-0.805-0.102-1.602-0.239-2.388-0.412L27.099,95.655z
		 M29.216,90.965l0.591-1.31l0.509,1.347l-0.68,4.16L29.216,90.965z M30.481,91.437l1.656,4.381l1.656,16.571
		c-0.797,0.106-1.602,0.179-2.414,0.213l-1.654-16.546L30.481,91.437z M32.454,96.658l5.596,14.802
		c-1.31,0.402-2.656,0.703-4.027,0.898L32.454,96.658z M32.365,95.765L31.9,91.108l2.734,3.804l5.912,15.642
		c-0.744,0.313-1.503,0.592-2.275,0.836L32.365,95.765z M35.157,95.64l9.264,12.889c-1.172,0.742-2.396,1.386-3.661,1.932
		L35.157,95.64z M34.84,94.8l-1.655-4.378l3.624,2.965l9.782,13.61c-0.639,0.5-1.298,0.968-1.974,1.404L34.84,94.8z M33.021,89.988
		l-0.508-1.344l1.312,0.593l2.461,3.423L33.021,89.988z M34.249,89.427l4.269,1.927l12.993,10.633
		c-0.484,0.642-0.998,1.266-1.544,1.868L36.981,93.228L34.249,89.427z M39.336,91.723l14.52,6.555
		c-0.639,1.224-1.374,2.402-2.204,3.524L39.336,91.723z M38.641,91.155l-3.659-2.994l4.575,0.749l15.406,6.954
		c-0.299,0.751-0.633,1.487-1,2.208L38.641,91.155z M40.444,89.055l15.807,2.586c-0.295,1.37-0.696,2.709-1.201,4.007L40.444,89.055
		z M39.625,88.685L35.4,86.777l4.704-0.47l16.576,2.713c-0.091,0.806-0.218,1.605-0.381,2.393L39.625,88.685z M50.819,69.082
		l-12.825,9.219l9.975-12.192c0.366,0.329,0.725,0.667,1.076,1.018C49.672,67.753,50.263,68.406,50.819,69.082z M32.789,59.445
		l-2.516,15.38l-1.546-15.463c0.488-0.027,0.979-0.041,1.471-0.041C31.069,59.32,31.933,59.362,32.789,59.445z M13.358,65.31
		l8.997,12.517L10.442,68.08c0.294-0.324,0.596-0.642,0.908-0.953C11.993,66.484,12.663,65.878,13.358,65.31z M9.279,102.498
		l12.587-9.048l-9.839,12.025c-0.229-0.213-0.455-0.429-0.677-0.651C10.61,104.083,9.919,103.306,9.279,102.498z M27.044,112.445
		l2.536-15.503l1.566,15.67c-0.315,0.011-0.631,0.018-0.948,0.018C29.135,112.63,28.083,112.567,27.044,112.445z M46.772,106.852
		l-9.268-12.896l12.304,10.069c-0.249,0.27-0.502,0.536-0.764,0.797C48.321,105.547,47.562,106.223,46.772,106.852z"/>
	<path fill="#3D3D3B" d="M30.198,60.818c6.72,0,13.037,2.617,17.788,7.368s7.368,11.069,7.368,17.789
		c0,6.72-2.616,13.037-7.368,17.788c-4.751,4.751-11.068,7.368-17.788,7.368s-13.037-2.616-17.789-7.368
		c-4.751-4.751-7.368-11.069-7.368-17.788c0-6.72,2.617-13.037,7.368-17.789C17.161,63.435,23.478,60.818,30.198,60.818
		 M30.198,59.133c-14.825,0-26.842,12.017-26.842,26.842c0,14.824,12.017,26.842,26.842,26.842
		c14.825,0,26.841-12.018,26.841-26.842C57.039,71.15,45.023,59.133,30.198,59.133L30.198,59.133z"/>
	<path fill="#1E1E1C" d="M30.198,61.942c6.42,0,12.455,2.5,16.994,7.038c4.539,4.54,7.039,10.575,7.039,16.994
		c0,6.42-2.5,12.455-7.039,16.994c-4.539,4.539-10.574,7.039-16.994,7.039c-6.42,0-12.455-2.5-16.994-7.039
		C8.665,98.43,6.165,92.395,6.165,85.975c0-6.419,2.5-12.455,7.039-16.994C17.743,64.442,23.778,61.942,30.198,61.942
		 M30.198,60.819c-13.894,0-25.157,11.262-25.157,25.156c0,13.894,11.262,25.157,25.157,25.157
		c13.894,0,25.156-11.263,25.156-25.157C55.354,72.081,44.092,60.819,30.198,60.819L30.198,60.819z"/>
	<g>
		<g>
			<path fill="#1E1E1C" d="M30.272,59.32c15.26,0,27.63,11.933,27.63,26.655c0,1.531-0.135,3.032-0.393,4.492l1.504,0.41
				c0.29-1.591,0.442-3.23,0.442-4.902c0-15.549-13.018-28.418-29.136-28.418c-13.784,0-25.381,9.484-28.437,21.88
				c0,0,0.581-0.031,1.017-0.203c0.437-0.172,0.791-0.558,0.791-0.558C6.981,67.503,17.635,59.32,30.272,59.32z"/>
		</g>
	</g>
	<circle fill="#1E1E1C" cx="65.104" cy="92.623" r="1.732"/>
	<g>
		<path fill="#1E1E1C" d="M65.258,84.574l-0.001-0.002l-34.095-1.734l0.328,0.983l27.876,3.155l1.237,0.14
			c0.678-0.555,1.461-0.987,2.312-1.263c0.691-0.224,1.426-0.346,2.19-0.346c3.924,0,7.117,3.192,7.117,7.117
			c0,1.351-0.38,2.665-1.1,3.8c0,0,0.101,0.21,0.366,0.358c0.265,0.148,0.425,0.143,0.425,0.143c0.788-1.244,1.244-2.72,1.244-4.302
			C73.157,88.227,69.634,84.657,65.258,84.574z"/>
	</g>
	<path fill="#1E1E1C" d="M65.105,85.975l-34.871-2.769l-0.204,0.721l32.47,2.578c-2.377,1.014-4.044,3.371-4.044,6.118
		c0,1.883,0.784,3.582,2.043,4.792L29.157,88.33l-0.204,0.721l33.864,9.816c0.275,0.101,0.56,0.182,0.851,0.246l0.016,0.005l0-0.001
		c0.458,0.1,0.933,0.154,1.421,0.154c3.672,0,6.648-2.976,6.648-6.647C71.752,88.951,68.776,85.975,65.105,85.975z M70.441,92.623
		c0,0.192-0.011,0.382-0.03,0.569l-4.084-1.197l2.304-3.373C69.74,89.601,70.441,91.032,70.441,92.623z M64.722,97.945
		c-1.816-0.13-3.383-1.17-4.245-2.667l3.77-1.347L64.722,97.945z M62.217,88.138c0.833-0.538,1.824-0.852,2.888-0.852
		c0.684,0,1.338,0.131,1.94,0.367l-1.991,3.555L62.217,88.138z M61.114,89.084l2.449,3.172l-3.633,1.675
		c-0.106-0.419-0.163-0.857-0.163-1.308C59.767,91.266,60.277,90.026,61.114,89.084z M66.169,97.854l-0.118-4.056l4.011,0.798
		C69.403,96.245,67.946,97.492,66.169,97.854z"/>
	<path fill="#1E1E1C" d="M112.764,84.29c-0.186,0-0.365,0.031-0.532,0.087c-0.997-1.269-1.963-2.568-2.894-3.881
		c-0.616-0.863-1.2-1.748-1.748-2.646c-0.544-0.896-1.086-1.802-1.5-2.702c-0.103-0.228-0.191-0.439-0.266-0.662l-0.257-0.751
		l-0.51-1.516l-1.01-3.041l-1.025-3.036c-0.348-1.009-0.697-2.019-1.056-3.024l-2.161-6.031l-2.182-6.022L93.931,40.97l0.135-0.047
		c0,0,0,0,0.001,0l0.265-0.091c0.097-0.034,0.15-0.141,0.116-0.239l-0.111-0.325c-0.034-0.098-0.141-0.15-0.239-0.116l-0.086,0.029
		l-0.367-1.076c-0.033-0.098-0.14-0.151-0.238-0.117l-0.177,0.06l0,0l-0.176,0.059c-0.114-0.342-0.23-0.684-0.343-1.026
		c-0.16-0.491-0.321-0.989-0.456-1.464c-0.012-0.043-0.024-0.085-0.035-0.127c0.091-0.117,0.199-0.248,0.304-0.371
		c0.657-0.766,1.374-1.532,2.085-2.29c0.229-0.244,0.461-0.486,0.692-0.729c0.059,0.354,0.365,0.624,0.737,0.624
		c0.347,0,0.636-0.237,0.721-0.557c0.068,0.213,0.144,0.424,0.233,0.633c0.074,0.178,0.154,0.354,0.25,0.534
		c0.048,0.089,0.101,0.181,0.169,0.273c0.033,0.047,0.07,0.095,0.117,0.142c0.023,0.024,0.049,0.047,0.077,0.07l0.086,0.062
		l0.083,0.061c0.05,0.037,0.111,0.061,0.177,0.065c0.192,0.015,0.36-0.128,0.374-0.32c0.015-0.191-0.128-0.36-0.32-0.374
		c-0.07-0.005-0.184-0.128-0.262-0.265c-0.084-0.138-0.15-0.296-0.207-0.458c-0.11-0.327-0.191-0.671-0.253-1.017
		c-0.065-0.345-0.097-0.697-0.111-1.042c-0.012-0.31,0.004-0.624,0.06-0.897c0.284-0.308,0.459-0.719,0.459-1.172
		c0-0.643-0.352-1.204-0.873-1.503c-0.161-0.408-0.558-0.698-1.023-0.698c-0.114,0-0.225,0.017-0.328,0.05l-2.147,0.45v0
		c-0.578,0.114-1.047,0.527-1.242,1.073c-0.177,0.169-0.322,0.369-0.427,0.594l-2.245,1.675v0.001
		c-0.363,0.198-0.609,0.584-0.609,1.027c0,0.647,0.524,1.171,1.17,1.171c0.161,0,0.316-0.033,0.456-0.092l0,0l2.42-1.075
		c0.186,0.058,0.384,0.09,0.588,0.09c0.042,0,0.082-0.003,0.123-0.006c-0.103,0.108-0.206,0.216-0.308,0.325
		c-0.723,0.771-1.439,1.535-2.147,2.359c-0.18,0.214-0.349,0.41-0.549,0.694c-0.026,0.038-0.054,0.08-0.085,0.132l-0.053,0.095
		l-0.036,0.076l-0.008,0.019l-0.004,0.009c0.034-0.105-0.051,0.156-0.042,0.13l-0.003,0.011c-0.011,0.047-0.021,0.11-0.025,0.165
		c-0.003,0.028-0.004,0.057-0.003,0.085l0,0.036l0.007,0.087c0.005,0.041,0.01,0.079,0.015,0.105
		c0.01,0.059,0.019,0.102,0.029,0.145c0.037,0.165,0.074,0.298,0.112,0.434c0.153,0.531,0.315,1.031,0.479,1.536
		c0.114,0.348,0.231,0.694,0.347,1.041l-0.356,0.12c-0.098,0.033-0.15,0.14-0.117,0.237l0.372,1.09l-0.09,0.031
		c-0.098,0.034-0.15,0.141-0.116,0.238l0.114,0.333c0.034,0.097,0.141,0.15,0.238,0.116l0.408-0.141
		c0.079,0.245,0.156,0.49,0.236,0.734c-0.215,1.893-0.592,3.775-1.105,5.622c-0.568,2.033-1.311,4.021-2.178,5.954
		c-0.867,1.935-1.874,3.809-2.996,5.613c-1.121,1.804-2.352,3.542-3.684,5.2c-1.328,1.661-2.768,3.23-4.294,4.707
		c-1.528,1.475-3.145,2.857-4.854,4.107c-1.712,1.245-3.511,2.364-5.391,3.308c-1.577,0.783-3.204,1.432-4.88,1.913l-4.165-15.397
		l0.181-0.049c0.049-0.013,0.079-0.065,0.066-0.115l-0.156-0.577c-0.013-0.05-0.065-0.079-0.115-0.066l-0.181,0.049l0,0
		l-0.181,0.049L54.588,50.05c-0.077-0.283-0.295-0.506-0.576-0.589l-0.196-0.058c0.002-0.036,0.006-0.072,0.006-0.109
		c0-0.134-0.016-0.264-0.044-0.39c0.567-0.07,0.993-0.142,1.134-0.205c0.388-0.174,1.956-1.526,2.689-2.352
		c0.831,0.087,1.481,0.279,1.828,0.302c0.363,0.024,2.275,0.031,2.275,0.031s0.901,0.157,0.936-0.624
		c0.032-0.695-2.099-2.591-3.059-2.673c-0.622-0.053-7.836-0.24-9.597-0.152c-0.936,0.047-2.293-0.344-2.669-0.483
		c-0.656-0.242-2.153-0.313-2.645-0.149c-0.45,0.15-1.334,0.492-1.881,0.991c-0.407,0.373-0.359,0.828-0.156,1.061
		c0.211,0.243,1.342,1.405,2.778,2.653c0.913,0.794,1.649,1.032,2.426,1.1c0.109,0.506,0.324,0.959,0.743,0.959
		c0.017,0,0.714-0.048,1.641-0.121c-0.001,0.017-0.002,0.033-0.002,0.051c0,0.995,0.807,1.803,1.802,1.803
		c0.308,0,0.599-0.078,0.852-0.214l0.213,0.063l3.321,12.276l-0.362,0.098c-0.05,0.013-0.079,0.064-0.066,0.114l0.156,0.577
		c0.013,0.05,0.065,0.079,0.115,0.066l0.181-0.049l0.604,2.233L32.485,83.324c-0.682-0.602-1.575-0.97-2.556-0.97
		c-2.138,0-3.87,1.733-3.87,3.87c0,2.138,1.733,3.87,3.87,3.87c1.503,0,2.803-0.859,3.444-2.112l31.522,5.248l0.027-0.184
		c0.05,0.008,0.101,0.013,0.151,0.013c0.3,0,0.589-0.131,0.787-0.366l30.856-36.566c0.222,0.612,0.444,1.225,0.665,1.839
		c0.74,2.005,1.47,4.014,2.223,6.014c0.374,1.001,0.76,1.997,1.147,2.994l1.185,2.98l1.211,2.972l0.608,1.487l0.309,0.747
		c0.113,0.277,0.248,0.552,0.382,0.803c0.546,1.009,1.157,1.907,1.796,2.79c0.641,0.877,1.298,1.731,1.949,2.589
		c1.006,1.31,2.032,2.593,3.071,3.871c-0.117,0.229-0.184,0.488-0.184,0.763c0,0.931,0.755,1.685,1.686,1.685
		c0.931,0,1.685-0.754,1.685-1.685C114.45,85.044,113.695,84.29,112.764,84.29z M96.441,31.912c0.033,0.178,0.072,0.353,0.114,0.528
		c-0.114-0.11-0.263-0.182-0.429-0.202C96.23,32.129,96.335,32.021,96.441,31.912z M56.608,46.307c-0.696,0.683-1.723,1.582-2,1.706
		c-0.12,0.045-0.567,0.109-1.166,0.178c-0.248-0.319-0.6-0.553-1.007-0.649c1.496-0.541,3.04-1.142,3.738-1.209
		C56.322,46.318,56.466,46.311,56.608,46.307z M48.683,48.612c-0.021-0.045-0.043-0.108-0.065-0.181
		c0.203-0.001,0.411-0.003,0.63-0.003c0.329,0,0.812-0.109,1.375-0.275c-0.083,0.102-0.154,0.213-0.214,0.332
		C49.625,48.55,48.963,48.599,48.683,48.612z M63.406,89.814l-29.774-4.712c-0.08-0.266-0.189-0.518-0.321-0.756l24.086-16.741
		L63.406,89.814z M33.792,86.09l8.599,1.774l-8.631-1.118c0.023-0.171,0.039-0.344,0.039-0.521
		C33.799,86.179,33.794,86.135,33.792,86.09z M65.554,89.864l-2.438-9.011c1.806-0.563,3.554-1.311,5.215-2.18
		c1.971-1.023,3.838-2.221,5.604-3.542c2.155-1.602,4.161-3.384,6.025-5.302c0.017,0.012,0.034,0.024,0.05,0.036
		c0.254,0.189,0.494,0.391,0.724,0.605c0.222,0.207,0.432,0.424,0.632,0.653L65.554,89.864z M82.603,69.66
		c-0.209-0.167-0.41-0.342-0.603-0.526c-0.227-0.218-0.442-0.447-0.645-0.69c-0.015-0.018-0.03-0.037-0.044-0.055
		c0.713-0.789,1.405-1.597,2.073-2.422c2.765-3.414,5.117-7.164,6.978-11.158c0.928-1.999,1.717-4.066,2.35-6.186
		c0.216-0.718,0.41-1.443,0.586-2.175c0.626,1.833,1.264,3.66,1.912,5.484c0.231,0.653,0.466,1.305,0.7,1.957L82.603,69.66z"/>
	<path fill="#1E1E1C" d="M77.183,102.314h-2.265c-0.733-0.691-1.425-1.42-2.104-2.16c-0.756-0.838-1.499-1.687-2.212-2.564
		c-0.359-0.436-0.72-0.87-1.07-1.316l-0.528-0.663l-0.518-0.673c-0.688-0.9-1.364-1.809-1.997-2.758
		c-0.076-0.112-0.172-0.222-0.282-0.312c-0.615-0.506-1.523-0.419-2.029,0.196c-0.506,0.615-0.419,1.523,0.196,2.029
		c0.88,0.725,1.718,1.489,2.544,2.263l0.617,0.583l0.607,0.592c0.408,0.392,0.804,0.795,1.202,1.195
		c0.801,0.797,1.572,1.621,2.33,2.457c0.332,0.373,0.661,0.748,0.983,1.129h-1.139c-0.31,0-0.562,0.251-0.562,0.562v2.013
		c0,0.31,0.251,0.562,0.562,0.562h5.665c0.31,0,0.562-0.251,0.562-0.562v-2.013C77.745,102.565,77.493,102.314,77.183,102.314z
		 M75.53,102.694h0.877c0.103,0,0.185,0.083,0.185,0.185v0.323c0,0.006-0.003,0.012-0.004,0.017h-1.104
		c-0.004-0.147-0.045-0.29-0.119-0.421C75.395,102.737,75.456,102.694,75.53,102.694z M72.156,102.878
		c0-0.102,0.083-0.185,0.185-0.185h0.632c0.144,0.173,0.286,0.348,0.426,0.525H72.16c-0.001-0.006-0.004-0.011-0.004-0.017V102.878z
		 M73.391,104.842c0,0.104-0.084,0.188-0.187,0.188h-0.89c-0.104,0-0.187-0.084-0.187-0.188v-0.328c0-0.104,0.083-0.188,0.187-0.188
		h0.89c0.103,0,0.187,0.084,0.187,0.188V104.842z M76.621,104.842c0,0.104-0.084,0.188-0.187,0.188h-0.89
		c-0.104,0-0.187-0.084-0.187-0.188v-0.328c0-0.104,0.083-0.188,0.187-0.188h0.89c0.103,0,0.187,0.084,0.187,0.188V104.842z"/>
	<g>
		<path fill="#3D3D3B" d="M55.23,88.498c-0.037,0.371-0.082,0.739-0.135,1.106l1.668,0.225c0.05-0.352,0.096-0.706,0.133-1.062
			L55.23,88.498z"/>
	</g>
</g>
</svg>
