<?xml version="1.0" encoding="utf-8"?>
<!-- Generator: Adobe Illustrator 17.0.0, SVG Export Plug-In . SVG Version: 6.00 Build 0)  -->
<!DOCTYPE svg PUBLIC "-//W3C//DTD SVG 1.1//EN" "http://www.w3.org/Graphics/SVG/1.1/DTD/svg11.dtd">
<svg version="1.1" id="Layer_1" xmlns="http://www.w3.org/2000/svg" xmlns:xlink="http://www.w3.org/1999/xlink" x="0px" y="0px"
	 width="141.73px" height="141.73px" viewBox="0 0 141.73 141.73" enable-background="new 0 0 141.73 141.73" xml:space="preserve">
<g>
	<path fill="#1E1E1C" d="M112.164,57.136c-14.989,0-27.14,12.151-27.14,27.139c0,14.989,12.151,27.14,27.14,27.14
		c14.989,0,27.139-12.151,27.139-27.14C139.304,69.287,127.153,57.136,112.164,57.136z M135.891,84.275
		c0,0.836-0.045,1.665-0.13,2.485l-13.49-2.208l13.595-1.358C135.881,83.552,135.891,83.914,135.891,84.275z M88.438,84.275
		c0-0.864,0.047-1.721,0.138-2.568l13.535,2.215l-13.651,1.364C88.447,84.951,88.438,84.613,88.438,84.275z M113.247,84.567
		l-0.117,0.262l-0.183,0.224l-0.233,0.168l-0.27,0.101l-0.286,0.028l-0.366-0.059l-0.192-0.087l-0.227-0.185l-0.171-0.24
		l-0.105-0.274l-0.03-0.292l0.049-0.29l0.12-0.268l0.186-0.226l0.239-0.172l0.275-0.103l0.292-0.03l0.209,0.035l0.338,0.152
		l0.222,0.181l0.169,0.236l0.101,0.268l0.03,0.288L113.247,84.567z M113.692,84.098l0.011-0.026l0.027,0.022l-0.022,0.028
		L113.692,84.098z M113.793,83.871l0.038-0.083l0.109,0.049l-0.076,0.092L113.793,83.871z M113.624,83.733l-0.023-0.018l0.004-0.028
		l0.033,0.015L113.624,83.733z M113.641,83.469l0.018-0.112l0.125,0.021l-0.059,0.13L113.641,83.469z M113.441,83.38l-0.026-0.013
		l-0.006-0.05l0.042,0.006L113.441,83.38z M113.137,83.058l-0.009-0.025l0.041-0.004l0.003,0.035L113.137,83.058z M113.05,82.828
		l-0.033-0.084l0.118-0.045l0.011,0.121L113.05,82.828z M112.832,82.85l-0.035,0.004l-0.016-0.021l0.038-0.015L112.832,82.85z
		 M112.654,82.655L112.6,82.58l0.103-0.073l0.042,0.112L112.654,82.655z M112.448,82.733l-0.033,0.011l-0.02-0.016l0.033-0.025
		L112.448,82.733z M112.018,82.737l-0.025-0.011l0.026-0.032l0.028,0.023L112.018,82.737z M111.794,82.637l-0.083-0.038l0.052-0.115
		l0.093,0.077L111.794,82.637z M111.656,82.806l-0.007,0.008l-0.032-0.005l0.008-0.017L111.656,82.806z M111.401,82.774
		l-0.096-0.016l0.016-0.102l0.109,0.049L111.401,82.774z M111.31,82.974l-0.014,0.03l-0.032,0.003l0.006-0.04L111.31,82.974z
		 M111.005,83.278l-0.03,0.011l-0.004-0.039l0.04-0.004L111.005,83.278z M110.77,83.367l-0.091,0.034l-0.045-0.118l0.126-0.013
		L110.77,83.367z M110.791,83.585l0.003,0.032l-0.026,0.019l-0.015-0.037L110.791,83.585z M110.589,83.764l-0.078,0.057
		l-0.074-0.103l0.118-0.044L110.589,83.764z M110.667,83.97l0.013,0.031l-0.022,0.025l-0.023-0.033L110.667,83.97z M110.52,84.195
		l-0.062,0.076l-0.098-0.08l0.103-0.074L110.52,84.195z M110.646,84.374l0.02,0.027l-0.013,0.03l-0.032-0.026L110.646,84.374z
		 M110.563,84.63l-0.04,0.088l-0.115-0.052l0.08-0.098L110.563,84.63z M110.732,84.769l0.025,0.02l-0.005,0.033l-0.037-0.018
		L110.732,84.769z M110.717,85.04l-0.013,0.072l-0.119-0.019l0.043-0.095L110.717,85.04z M110.917,85.129l0.03,0.014l0.001,0.011
		l-0.034-0.006L110.917,85.129z M111.212,85.41l0.012,0.033l-0.034,0.003l-0.004-0.04L111.212,85.41z M111.302,85.649l0.035,0.091
		l-0.113,0.043l-0.012-0.125L111.302,85.649z M111.52,85.627l0.026-0.003l0.021,0.03l-0.033,0.013L111.52,85.627z M111.694,85.831
		l0.058,0.079l-0.099,0.07l-0.044-0.117L111.694,85.831z M111.9,85.753l0.024-0.009l0.028,0.023l-0.029,0.02L111.9,85.753z
		 M112.321,85.762l0.032,0.015l-0.022,0.027l-0.031-0.026L112.321,85.762z M112.553,85.867l0.09,0.04l-0.05,0.11l-0.098-0.079
		L112.553,85.867z M112.691,85.698l0.033-0.04l0.029,0.004l-0.024,0.052L112.691,85.698z M112.969,85.698l0.091,0.014l-0.023,0.141
		l-0.115-0.051L112.969,85.698z M113.059,85.499l0.013-0.026l0.028-0.003l-0.006,0.035L113.059,85.499z M113.358,85.202l0.026-0.011
		l0.003,0.035l-0.035,0.004L113.358,85.202z M113.589,85.115l0.087-0.033l0.042,0.113l-0.12,0.012L113.589,85.115z M113.567,84.897
		l-0.002-0.03l0.023-0.017l0.012,0.033L113.567,84.897z M113.767,84.723l0.075-0.054l0.069,0.097l-0.112,0.042L113.767,84.723z
		 M113.689,84.518l-0.011-0.026l0.019-0.022l0.021,0.028L113.689,84.518z M113.836,84.299l0.058-0.072l0.093,0.077l-0.097,0.069
		L113.836,84.299z M114.028,84.065l0.112-0.137l0.228,0.103l-0.203,0.146L114.028,84.065z M114.278,83.758l0.215-0.264l0.504,0.083
		l-0.432,0.31L114.278,83.758z M114.079,83.668l-0.161-0.072L114,83.414l0.252,0.042L114.079,83.668z M114.09,83.215l0.131-0.29
		l0.508-0.052l-0.321,0.393L114.09,83.215z M113.874,83.179l-0.18-0.03l0.029-0.175l0.255-0.026L113.874,83.179z M113.485,83.115
		l-0.096-0.017l-0.009-0.09l0.125-0.012L113.485,83.115z M113.358,82.797l-0.018-0.177l0.241-0.091l-0.041,0.249L113.358,82.797z
		 M113.318,82.403l-0.032-0.316l0.415-0.297l-0.082,0.5L113.318,82.403z M113.113,82.481l-0.17,0.064l-0.062-0.166l0.208-0.149
		L113.113,82.481z M112.802,82.174l-0.112-0.298l0.323-0.395l0.05,0.504L112.802,82.174z M112.625,82.302l-0.148,0.106l-0.103-0.143
		l0.163-0.199L112.625,82.302z M112.304,82.532l-0.079,0.057l-0.07-0.057l0.079-0.098L112.304,82.532z M111.991,82.397l-0.137-0.112
		l0.105-0.234l0.147,0.205L111.991,82.397z M111.684,82.146l-0.246-0.202l0.083-0.504l0.296,0.411L111.684,82.146z M111.593,82.346
		l-0.075,0.166l-0.161-0.074l0.042-0.253L111.593,82.346z M111.157,82.349l-0.29-0.132l-0.051-0.507l0.392,0.321L111.157,82.349z
		 M111.121,82.566l-0.026,0.158l-0.18-0.03l-0.023-0.233L111.121,82.566z M111.062,82.933l-0.016,0.096l-0.096,0.01l-0.014-0.127
		L111.062,82.933z M110.739,83.059l-0.183,0.019l-0.091-0.243l0.256,0.042L110.739,83.059z M110.339,83.1l-0.323,0.031l-0.303-0.419
		l0.509,0.083L110.339,83.1z M110.416,83.305l0.064,0.171l-0.171,0.065l-0.151-0.211L110.416,83.305z M110.104,83.618l-0.302,0.115
		l-0.4-0.327l0.514-0.051L110.104,83.618z M110.231,83.796l0.107,0.149l-0.149,0.106l-0.2-0.164L110.231,83.796z M110.013,84.179
		l-0.264,0.19l-0.471-0.212l0.483-0.182L110.013,84.179z M110.182,84.319l0.141,0.115l-0.116,0.142l-0.236-0.107L110.182,84.319z
		 M110.069,84.745l-0.189,0.233l-0.502-0.083l0.395-0.283L110.069,84.745z M110.268,84.836l0.168,0.075l-0.067,0.147l-0.249-0.041
		L110.268,84.836z M110.279,85.258l-0.132,0.293l-0.505,0.05l0.323-0.395L110.279,85.258z M110.496,85.293l0.175,0.029l-0.03,0.18
		l-0.251,0.025L110.496,85.293z M110.879,85.357l0.091,0.015l0.009,0.096l-0.12,0.013L110.879,85.357z M111,85.679l0.019,0.181
		l-0.236,0.089l0.042-0.253L111,85.679z M111.039,86.078l0.033,0.321l-0.412,0.296l0.082-0.505L111.039,86.078z M111.246,86.002
		l0.166-0.064l0.065,0.171l-0.205,0.147L111.246,86.002z M111.553,86.314l0.114,0.3l-0.321,0.393l-0.051-0.508L111.553,86.314z
		 M111.731,86.186l0.144-0.104l0.106,0.149l-0.16,0.195L111.731,86.186z M112.048,85.959l0.074-0.053l0.075,0.062l-0.077,0.093
		L112.048,85.959z M112.361,86.102l0.14,0.115l-0.103,0.231l-0.15-0.209L112.361,86.102z M112.672,86.356l0.249,0.203l-0.082,0.501
		l-0.297-0.415L112.672,86.356z M112.762,86.157l0.073-0.161l0.166,0.075l-0.04,0.25L112.762,86.157z M113.201,86.16l0.293,0.132
		l0.05,0.505l-0.396-0.323L113.201,86.16z M113.237,85.943l0.031-0.195l0.174,0.028l0.028,0.273L113.237,85.943z M113.303,85.538
		l0.015-0.091l0.092-0.008l0.011,0.118L113.303,85.538z M113.62,85.417l0.176-0.018l0.089,0.234l-0.248-0.04L113.62,85.417z
		 M114.014,85.377l0.313-0.031l0.293,0.408l-0.495-0.081L114.014,85.377z M113.937,85.173l-0.063-0.166l0.165-0.062l0.146,0.203
		L113.937,85.173z M114.244,84.868l0.294-0.112l0.389,0.318l-0.5,0.049L114.244,84.868z M114.116,84.69l-0.103-0.144l0.143-0.103
		l0.194,0.158L114.116,84.69z M114.335,84.315l0.255-0.184l0.457,0.206l-0.469,0.177L114.335,84.315z M114.789,83.989l0.505-0.363
		l1.142,0.187l-1.109,0.419L114.789,83.989z M115.538,83.451l1.063-0.765l3.826-0.382l-3.594,1.358L115.538,83.451z M115.241,83.402
		l-0.592-0.098l0.378-0.46l1.152-0.115L115.241,83.402z M115.216,82.612l0.83-1.013l3.597-1.361l-3.12,2.243L115.216,82.612z
		 M114.919,82.641l-0.597,0.061l0.246-0.545l1.082-0.408L114.919,82.641z M114.079,82.725l-0.321,0.032l0.051-0.314l0.478-0.181
		L114.079,82.725z M113.848,82.203l0.096-0.59l0.94-0.676l-0.475,1.054L113.848,82.203z M113.994,81.318l0.211-1.293l2.436-2.976
		l-1.581,3.502L113.994,81.318z M113.75,81.493l-0.487,0.35l-0.059-0.593l0.733-0.896L113.75,81.493z M113.173,80.952l-0.13-1.303
		l1.583-3.505l-0.621,3.793L113.173,80.952z M112.984,81.183l-0.38,0.465l-0.21-0.558l0.476-1.055L112.984,81.183z M112.449,81.837
		l-0.204,0.25l-0.185-0.259l0.209-0.466L112.449,81.837z M111.917,81.63l-0.348-0.485l0.186-1.141l0.41,1.079L111.917,81.63z
		 M111.394,80.902l-0.764-1.063l-0.383-3.827l1.359,3.595L111.394,80.902z M111.345,81.198l-0.096,0.592l-0.462-0.377l-0.115-1.153
		L111.345,81.198z M110.555,81.222l-1.014-0.829l-1.359-3.597l2.242,3.12L110.555,81.222z M110.585,81.52l0.059,0.597l-0.544-0.245
		l-0.41-1.084L110.585,81.52z M110.669,82.361l0.03,0.299l-0.321-0.053l-0.171-0.454L110.669,82.361z M110.136,82.567l-0.597-0.098
		l-0.657-0.916l1.051,0.475L110.136,82.567z M109.244,82.421l-1.309-0.214l-2.943-2.408l3.504,1.581L109.244,82.421z
		 M109.418,82.664l0.353,0.492l-0.603,0.06l-0.906-0.742L109.418,82.664z M108.871,83.246l-1.319,0.132l-3.542-1.599l3.835,0.628
		L108.871,83.246z M109.103,83.436l0.469,0.384l-0.567,0.214l-1.066-0.482L109.103,83.436z M108.725,84.14l-1.199,0.453
		l-3.792-0.621l3.783-0.378L108.725,84.14z M108.999,84.263l0.551,0.249l-0.467,0.335l-1.14-0.186L108.999,84.263z M108.84,85.022
		l-1.066,0.766l-3.824,0.383l3.597-1.36L108.84,85.022z M109.135,85.071l0.589,0.097l-0.379,0.465l-1.149,0.115L109.135,85.071z
		 M109.155,85.864l-0.832,1.015l-3.593,1.359l3.122-2.245L109.155,85.864z M109.452,85.834l0.594-0.06l-0.246,0.547l-1.081,0.409
		L109.452,85.834z M110.289,85.749l0.317-0.032l-0.052,0.318l-0.475,0.18L110.289,85.749z M110.514,86.278l-0.096,0.592
		l-0.937,0.674l0.476-1.055L110.514,86.278z M110.369,87.165l-0.212,1.296l-2.433,2.974l1.583-3.504L110.369,87.165z M110.612,86.99
		l0.485-0.347l0.06,0.597l-0.731,0.893L110.612,86.99z M111.186,87.537l0.132,1.307l-1.581,3.503l0.621-3.795L111.186,87.537z
		 M111.376,87.306l0.378-0.462l0.212,0.563l-0.475,1.051L111.376,87.306z M111.908,86.654l0.202-0.245l0.188,0.262l-0.209,0.463
		L111.908,86.654z M112.441,86.869l0.35,0.487l-0.186,1.139l-0.41-1.082L112.441,86.869z M112.966,87.599l0.766,1.066l0.382,3.823
		l-1.36-3.596L112.966,87.599z M113.014,87.305l0.096-0.591l0.464,0.38l0.115,1.149L113.014,87.305z M113.806,87.285l1.017,0.83
		l1.358,3.596l-2.244-3.122L113.806,87.285z M113.777,86.987l-0.059-0.594l0.546,0.247l0.409,1.081L113.777,86.987z M113.693,86.15
		l-0.034-0.339l0.312,0.052l0.188,0.497L113.693,86.15z M114.212,85.901l0.583,0.096l0.691,0.963l-1.055-0.476L114.212,85.901z
		 M115.09,86.046l1.281,0.209l3.006,2.461l-3.505-1.583L115.09,86.046z M114.916,85.802l-0.345-0.48l0.588-0.059l0.884,0.724
		L114.916,85.802z M115.458,85.234l1.29-0.13l3.465,1.565l-3.752-0.614L115.458,85.234z M115.225,85.044l-0.457-0.374l0.553-0.209
		l1.041,0.47L115.225,85.044z M115.601,84.355l1.253-0.473l3.795,0.62l-3.867,0.387L115.601,84.355z M117.25,83.731l3.99-1.509
		l14.396-1.439c0.107,0.725,0.178,1.459,0.219,2.199l-14.392,1.438L117.25,83.731z M122.005,81.934l12.784-4.834
		c0.357,1.132,0.63,2.292,0.814,3.475L122.005,81.934z M121.192,82.015l-4.247,0.425l3.465-2.49l13.533-5.116
		c0.293,0.675,0.555,1.364,0.784,2.065L121.192,82.015z M121.072,79.472l11.094-7.973c0.645,1.006,1.21,2.053,1.694,3.139
		L121.072,79.472z M120.307,79.761l-3.993,1.509l2.701-3.301l11.74-8.439c0.461,0.579,0.893,1.176,1.293,1.791L120.307,79.761z
		 M115.918,81.421l-1.227,0.463l0.539-1.193l3.122-2.244L115.918,81.421z M115.403,80.305l1.755-3.889l9.156-11.191
		c0.588,0.439,1.157,0.906,1.708,1.403l-9.153,11.185L115.403,80.305z M117.495,75.671l5.621-12.455
		c1.05,0.548,2.063,1.177,3.028,1.885L117.495,75.671z M116.976,76.303l-2.704,3.304l0.689-4.21l5.952-13.189
		c0.685,0.273,1.356,0.575,2.014,0.91L116.976,76.303z M115.094,74.589l2.207-13.485c1.166,0.256,2.307,0.599,3.415,1.026
		L115.094,74.589z M114.757,75.336l-1.756,3.892l-0.424-4.245l2.336-14.276c0.735,0.084,1.462,0.202,2.18,0.354L114.757,75.336z
		 M112.826,79.614l-0.539,1.196l-0.464-1.225l0.621-3.795L112.826,79.614z M111.674,79.188l-1.508-3.99l-1.44-14.403
		c0.725-0.105,1.459-0.177,2.199-0.214l1.438,14.394L111.674,79.188z M109.876,74.432l-4.837-12.797
		c1.131-0.355,2.293-0.626,3.478-0.807L109.876,74.432z M109.957,75.247l0.425,4.247l-2.491-3.464l-5.123-13.554
		c0.676-0.292,1.366-0.551,2.068-0.779L109.957,75.247z M107.415,75.366l-7.99-11.116c1.009-0.645,2.061-1.209,3.149-1.689
		L107.415,75.366z M107.705,76.132l1.509,3.993l-3.301-2.702l-8.458-11.766c0.58-0.459,1.178-0.89,1.792-1.291L107.705,76.132z
		 M109.363,80.52l0.465,1.229l-1.193-0.538l-2.244-3.124L109.363,80.52z M108.248,81.037l-3.889-1.756l-11.223-9.184
		c0.439-0.587,0.906-1.157,1.403-1.706l11.217,9.178L108.248,81.037z M103.614,78.945l-12.498-5.641
		c0.551-1.054,1.183-2.068,1.893-3.037L103.614,78.945z M104.248,79.462l3.269,2.677l-4.252-0.696l-13.158-5.94
		c0.272-0.684,0.576-1.355,0.912-2.011L104.248,79.462z M102.457,81.311l-13.457-2.202c0.257-1.163,0.601-2.302,1.03-3.407
		L102.457,81.311z M103.203,81.648l3.927,1.772l-4.205,0.42L88.6,81.496c0.085-0.736,0.204-1.462,0.356-2.181L103.203,81.648z
		 M102.919,84.055l4.209,0.689l-3.993,1.508l-14.453,1.445c-0.105-0.725-0.176-1.46-0.213-2.198L102.919,84.055z M102.371,86.542
		l-12.848,4.857c-0.356-1.137-0.626-2.303-0.809-3.492L102.371,86.542z M103.185,86.46l4.245-0.425l-3.466,2.491l-13.598,5.141
		c-0.292-0.676-0.551-1.366-0.779-2.067L103.185,86.46z M103.3,89.004l-11.155,8.019c-0.647-1.012-1.214-2.068-1.697-3.161
		L103.3,89.004z M104.065,88.715l3.99-1.509l-2.703,3.304l-11.8,8.483c-0.459-0.58-0.89-1.177-1.291-1.792L104.065,88.715z
		 M108.451,87.057l1.225-0.463l-0.54,1.196l-3.12,2.242L108.451,87.057z M108.962,88.177l-1.756,3.891l-9.204,11.248
		c-0.587-0.439-1.157-0.906-1.707-1.402l9.203-11.246L108.962,88.177z M106.869,92.811l-5.652,12.525
		c-1.057-0.551-2.074-1.184-3.045-1.896L106.869,92.811z M107.388,92.179l2.701-3.301l-0.69,4.214l-5.981,13.251
		c-0.685-0.272-1.356-0.575-2.013-0.909L107.388,92.179z M109.267,93.899l-2.217,13.551c-1.172-0.256-2.32-0.599-3.434-1.029
		L109.267,93.899z M109.604,93.154l1.755-3.889l0.425,4.248l-2.345,14.333c-0.735-0.084-1.463-0.202-2.181-0.352L109.604,93.154z
		 M111.532,88.879l0.539-1.194l0.464,1.228l-0.62,3.792L111.532,88.879z M112.686,89.31l1.508,3.993l1.445,14.446
		c-0.726,0.106-1.46,0.179-2.199,0.217l-1.444-14.447L112.686,89.31z M114.484,94.068l4.851,12.834
		c-1.134,0.359-2.3,0.632-3.487,0.816L114.484,94.068z M114.403,93.255l-0.424-4.245l2.492,3.466l5.133,13.58
		c-0.676,0.293-1.365,0.555-2.067,0.783L114.403,93.255z M116.949,93.14l8,11.131c-1.01,0.647-2.061,1.215-3.151,1.699
		L116.949,93.14z M116.658,92.375l-1.508-3.991l3.302,2.703l8.463,11.773c-0.579,0.462-1.176,0.892-1.789,1.296L116.658,92.375z
		 M115.001,87.987l-0.463-1.224l1.196,0.539l2.242,3.121L115.001,87.987z M116.119,87.477l3.892,1.756l11.215,9.177
		c-0.438,0.588-0.906,1.157-1.4,1.709l-11.215-9.178L116.119,87.477z M120.756,89.571l12.48,5.632
		c-0.548,1.054-1.179,2.068-1.886,3.036L120.756,89.571z M120.123,89.051l-3.334-2.729l4.17,0.683l13.281,5.996
		c-0.27,0.684-0.572,1.357-0.907,2.014L120.123,89.051z M121.766,87.138l13.58,2.222c-0.255,1.176-0.598,2.327-1.029,3.444
		L121.766,87.138z M121.02,86.801l-3.852-1.739l4.288-0.429l14.282,2.336c-0.083,0.735-0.199,1.463-0.348,2.182L121.02,86.801z
		 M130.622,69.365l-11.089,7.971l8.646-10.566c0.259,0.236,0.514,0.478,0.763,0.728C129.538,68.095,130.098,68.719,130.622,69.365z
		 M114.702,60.684l-2.206,13.484l-1.358-13.596c0.341-0.015,0.684-0.024,1.027-0.024C113.017,60.549,113.864,60.595,114.702,60.684z
		 M97.289,65.79l7.989,11.115l-10.595-8.67c0.229-0.249,0.463-0.495,0.705-0.736C95.995,66.89,96.63,66.322,97.289,65.79z
		 M93.685,99.158l11.149-8.014l-8.694,10.627c-0.255-0.234-0.506-0.473-0.751-0.719C94.783,100.447,94.215,99.814,93.685,99.158z
		 M109.648,107.868l2.216-13.542l1.365,13.65c-0.354,0.015-0.708,0.024-1.064,0.024
		C111.318,108.001,110.479,107.956,109.648,107.868z M127.082,102.727l-7.995-11.121l10.595,8.669
		c-0.24,0.264-0.488,0.523-0.741,0.777C128.346,101.647,127.726,102.204,127.082,102.727z"/>
	<path fill="#1E1E1C" d="M31.052,57.388c-14.848,0-26.885,12.036-26.885,26.884c0,14.846,12.037,26.883,26.885,26.883
		c14.846,0,26.883-12.037,26.883-26.883C57.935,69.424,45.899,57.388,31.052,57.388z M54.553,84.272
		c0,0.904-0.052,1.799-0.152,2.684l-13.338-2.183l13.473-1.347C54.547,83.707,54.553,83.989,54.553,84.272z M7.549,84.272
		c0-0.782,0.038-1.556,0.113-2.321l13.432,2.197L7.582,85.499C7.561,85.091,7.549,84.682,7.549,84.272z M32.124,84.787l-0.117,0.259
		l-0.18,0.22l-0.233,0.168l-0.265,0.101l-0.286,0.029l-0.362-0.06l-0.188-0.084l-0.226-0.185l-0.17-0.236l-0.101-0.272l-0.03-0.289
		l0.048-0.288l0.12-0.264l0.183-0.224l0.238-0.171l0.27-0.102l0.291-0.03l0.205,0.035l0.336,0.15l0.22,0.181l0.166,0.232
		l0.101,0.267l0.028,0.284L32.124,84.787z M32.563,84.323l0.013-0.027l0.026,0.023l-0.022,0.027L32.563,84.323z M32.665,84.098
		l0.037-0.084l0.108,0.05l-0.075,0.092L32.665,84.098z M32.498,83.961l-0.023-0.018l0.004-0.03l0.033,0.016L32.498,83.961z
		 M32.514,83.7l0.018-0.111l0.124,0.02l-0.058,0.128L32.514,83.7z M32.317,83.611L32.291,83.6l-0.006-0.052l0.04,0.008
		L32.317,83.611z M32.015,83.292l-0.009-0.025l0.041-0.004l0.003,0.034L32.015,83.292z M31.93,83.065l-0.033-0.084l0.117-0.044
		l0.011,0.119L31.93,83.065z M31.713,83.086l-0.036,0.004l-0.015-0.021l0.039-0.016L31.713,83.086z M31.536,82.892l-0.053-0.074
		l0.101-0.072l0.042,0.112L31.536,82.892z M31.333,82.969L31.3,82.981l-0.02-0.016l0.033-0.023L31.333,82.969z M30.907,82.975
		l-0.023-0.011l0.026-0.032l0.025,0.022L30.907,82.975z M30.685,82.875l-0.082-0.038l0.052-0.113l0.093,0.076L30.685,82.875z
		 M30.548,83.043l-0.006,0.009l-0.033-0.005l0.009-0.018L30.548,83.043z M30.295,83.011L30.2,82.995l0.017-0.101l0.109,0.049
		L30.295,83.011z M30.206,83.209l-0.013,0.03l-0.033,0.004l0.006-0.04L30.206,83.209z M29.904,83.51l-0.031,0.011l-0.004-0.039
		l0.04-0.005L29.904,83.51z M29.67,83.598l-0.09,0.033l-0.044-0.117l0.125-0.012L29.67,83.598z M29.692,83.813l0.004,0.034
		l-0.027,0.018l-0.015-0.037L29.692,83.813z M29.492,83.992l-0.078,0.057l-0.074-0.103l0.117-0.044L29.492,83.992z M29.569,84.195
		l0.011,0.03l-0.021,0.026l-0.023-0.033L29.569,84.195z M29.422,84.418l-0.06,0.074l-0.098-0.077l0.102-0.074L29.422,84.418z
		 M29.549,84.595l0.019,0.026l-0.013,0.03l-0.031-0.025L29.549,84.595z M29.465,84.849l-0.04,0.088l-0.113-0.052l0.079-0.096
		L29.465,84.849z M29.633,84.987l0.026,0.021l-0.006,0.031l-0.037-0.017L29.633,84.987z M29.618,85.255l-0.012,0.073l-0.118-0.02
		l0.042-0.093L29.618,85.255z M29.816,85.344l0.03,0.013l0.001,0.01l-0.033-0.005L29.816,85.344z M30.109,85.622l0.011,0.033
		l-0.033,0.003l-0.004-0.04L30.109,85.622z M30.197,85.858l0.035,0.091l-0.112,0.042l-0.013-0.124L30.197,85.858z M30.413,85.836
		l0.026-0.003l0.021,0.029l-0.032,0.012L30.413,85.836z M30.587,86.039l0.057,0.079l-0.097,0.07l-0.044-0.116L30.587,86.039z
		 M30.79,85.962l0.025-0.009l0.027,0.023l-0.027,0.02L30.79,85.962z M31.207,85.971l0.032,0.015l-0.021,0.026l-0.032-0.026
		L31.207,85.971z M31.436,86.075l0.089,0.04l-0.049,0.109l-0.097-0.079L31.436,86.075z M31.574,85.906l0.033-0.038l0.028,0.004
		l-0.023,0.05L31.574,85.906z M31.85,85.907l0.089,0.015l-0.024,0.139l-0.113-0.05L31.85,85.907z M31.938,85.71l0.011-0.026
		l0.028-0.003l-0.006,0.035L31.938,85.71z M32.234,85.415l0.026-0.009l0.004,0.035l-0.035,0.004L32.234,85.415z M32.463,85.328
		l0.086-0.032l0.042,0.111l-0.119,0.012L32.463,85.328z M32.442,85.114l-0.003-0.03l0.025-0.016l0.011,0.033L32.442,85.114z
		 M32.639,84.942l0.074-0.054l0.069,0.096l-0.112,0.042L32.639,84.942z M32.562,84.739l-0.01-0.026l0.019-0.022l0.02,0.028
		L32.562,84.739z M32.708,84.522l0.057-0.071l0.092,0.075l-0.096,0.069L32.708,84.522z M32.898,84.288l0.11-0.136l0.226,0.103
		l-0.2,0.144L32.898,84.288z M33.146,83.985l0.214-0.262l0.499,0.083l-0.429,0.307L33.146,83.985z M32.948,83.896l-0.159-0.072
		l0.08-0.18l0.252,0.04L32.948,83.896z M32.959,83.446l0.13-0.287l0.502-0.05l-0.317,0.389L32.959,83.446z M32.746,83.411
		l-0.179-0.028l0.028-0.173l0.253-0.026L32.746,83.411z M32.36,83.348l-0.096-0.015l-0.008-0.09l0.124-0.013L32.36,83.348z
		 M32.234,83.034l-0.017-0.176l0.238-0.09l-0.04,0.248L32.234,83.034z M32.196,82.643l-0.032-0.314l0.412-0.294l-0.082,0.495
		L32.196,82.643z M31.992,82.72l-0.169,0.064l-0.062-0.164l0.206-0.148L31.992,82.72z M31.684,82.417l-0.111-0.296l0.32-0.39
		l0.05,0.499L31.684,82.417z M31.507,82.543l-0.146,0.106l-0.103-0.144l0.161-0.196L31.507,82.543z M31.191,82.771l-0.078,0.056
		l-0.072-0.057l0.081-0.097L31.191,82.771z M30.88,82.637l-0.136-0.11l0.105-0.233l0.146,0.204L30.88,82.637z M30.576,82.388
		l-0.245-0.199l0.081-0.499l0.293,0.408L30.576,82.388z M30.486,82.587l-0.074,0.165l-0.161-0.072l0.041-0.251L30.486,82.587z
		 M30.054,82.59l-0.287-0.13l-0.05-0.504l0.389,0.318L30.054,82.59z M30.019,82.804l-0.026,0.158l-0.179-0.03l-0.023-0.23
		L30.019,82.804z M29.959,83.168l-0.015,0.096l-0.096,0.009l-0.013-0.125L29.959,83.168z M29.639,83.294l-0.18,0.018l-0.09-0.24
		l0.253,0.04L29.639,83.294z M29.243,83.334l-0.32,0.032l-0.298-0.416l0.504,0.083L29.243,83.334z M29.319,83.536l0.066,0.17
		l-0.17,0.065l-0.15-0.209L29.319,83.536z M29.012,83.847l-0.302,0.114l-0.395-0.325l0.509-0.05L29.012,83.847z M29.138,84.023
		l0.105,0.147l-0.147,0.106l-0.2-0.163L29.138,84.023z M28.92,84.403l-0.26,0.188l-0.468-0.21l0.48-0.181L28.92,84.403z
		 M29.088,84.541l0.141,0.115l-0.115,0.141l-0.234-0.106L29.088,84.541z M28.976,84.963l-0.187,0.231l-0.497-0.081l0.391-0.281
		L28.976,84.963z M29.174,85.053l0.165,0.075l-0.065,0.146l-0.246-0.04L29.174,85.053z M29.184,85.471l-0.13,0.291l-0.5,0.049
		l0.32-0.391L29.184,85.471z M29.399,85.507l0.173,0.028l-0.028,0.177l-0.249,0.025L29.399,85.507z M29.78,85.569l0.088,0.015
		l0.01,0.096l-0.118,0.012L29.78,85.569z M29.9,85.887l0.017,0.18l-0.234,0.089l0.042-0.252L29.9,85.887z M29.938,86.284
		l0.033,0.318l-0.408,0.293l0.081-0.499L29.938,86.284z M30.142,86.207l0.164-0.062l0.064,0.169l-0.203,0.146L30.142,86.207z
		 M30.446,86.518l0.113,0.298l-0.318,0.389l-0.05-0.504L30.446,86.518z M30.624,86.39l0.141-0.102l0.106,0.147l-0.159,0.193
		L30.624,86.39z M30.935,86.165l0.074-0.052l0.076,0.062l-0.076,0.092L30.935,86.165z M31.247,86.307l0.139,0.115l-0.101,0.228
		l-0.149-0.206L31.247,86.307z M31.555,86.559l0.246,0.202l-0.082,0.496l-0.294-0.411L31.555,86.559z M31.644,86.361l0.072-0.16
		l0.165,0.074l-0.04,0.246L31.644,86.361z M32.078,86.365l0.291,0.132l0.05,0.499l-0.391-0.32L32.078,86.365z M32.114,86.151
		l0.031-0.195l0.172,0.029l0.027,0.27L32.114,86.151z M32.179,85.749l0.015-0.091l0.09-0.008l0.012,0.118L32.179,85.749z
		 M32.493,85.629l0.175-0.018l0.088,0.232l-0.244-0.039L32.493,85.629z M32.884,85.59l0.31-0.032l0.291,0.405l-0.49-0.079
		L32.884,85.59z M32.806,85.387l-0.061-0.165l0.162-0.061l0.146,0.2L32.806,85.387z M33.111,85.084l0.293-0.111l0.384,0.314
		l-0.495,0.051L33.111,85.084z M32.985,84.908l-0.102-0.142l0.142-0.102l0.192,0.156L32.985,84.908z M33.201,84.537l0.254-0.183
		l0.453,0.205l-0.465,0.176L33.201,84.537z M33.652,84.213l0.5-0.359l1.131,0.185l-1.099,0.414L33.652,84.213z M34.392,83.68
		l1.054-0.756l3.791-0.379l-3.561,1.346L34.392,83.68z M34.1,83.633l-0.586-0.096l0.373-0.458l1.141-0.115L34.1,83.633z
		 M34.076,82.85l0.821-1.005l3.564-1.347l-3.09,2.222L34.076,82.85z M33.78,82.879l-0.592,0.059l0.243-0.539l1.073-0.405
		L33.78,82.879z M32.947,82.963l-0.318,0.032l0.051-0.311l0.474-0.179L32.947,82.963z M32.72,82.445l0.095-0.583l0.932-0.67
		l-0.471,1.042L32.72,82.445z M32.864,81.568l0.21-1.28l2.413-2.948l-1.567,3.47L32.864,81.568z M32.623,81.742l-0.483,0.347
		l-0.059-0.588l0.725-0.888L32.623,81.742z M32.051,81.205l-0.129-1.29l1.567-3.473l-0.615,3.758L32.051,81.205z M31.864,81.435
		l-0.376,0.46l-0.209-0.553l0.471-1.046L31.864,81.435z M31.335,82.082l-0.204,0.247l-0.183-0.255l0.207-0.461L31.335,82.082z
		 M30.806,81.877l-0.345-0.48l0.185-1.133l0.405,1.07L30.806,81.877z M30.289,81.156l-0.757-1.053l-0.379-3.791l1.346,3.56
		L30.289,81.156z M30.24,81.449l-0.096,0.587l-0.456-0.374l-0.114-1.141L30.24,81.449z M29.458,81.474l-1.005-0.822l-1.346-3.563
		l2.22,3.091L29.458,81.474z M29.487,81.769l0.06,0.591l-0.539-0.243l-0.406-1.072L29.487,81.769z M29.571,82.601l0.029,0.295
		l-0.316-0.051l-0.17-0.451L29.571,82.601z M29.043,82.806l-0.592-0.097L27.8,81.801l1.042,0.471L29.043,82.806z M28.159,82.661
		l-1.296-0.211l-2.915-2.387l3.47,1.567L28.159,82.661z M28.332,82.902l0.35,0.487l-0.597,0.06l-0.898-0.734L28.332,82.902z
		 M27.789,83.479l-1.306,0.131l-3.509-1.584l3.8,0.621L27.789,83.479z M28.02,83.666l0.463,0.38l-0.561,0.212l-1.057-0.477
		L28.02,83.666z M27.645,84.363l-1.189,0.449L22.7,84.198l3.747-0.374L27.645,84.363z M27.915,84.484l0.547,0.248L28,85.065
		l-1.13-0.185L27.915,84.484z M27.758,85.238l-1.055,0.759l-3.788,0.377l3.563-1.347L27.758,85.238z M28.052,85.286l0.584,0.095
		l-0.376,0.46l-1.138,0.114L28.052,85.286z M28.07,86.071l-0.822,1.006l-3.56,1.346L26.78,86.2L28.07,86.071z M28.365,86.041
		l0.589-0.059l-0.245,0.543l-1.07,0.405L28.365,86.041z M29.194,85.959l0.313-0.031l-0.051,0.314l-0.471,0.178L29.194,85.959z
		 M29.417,86.481l-0.096,0.587l-0.928,0.668l0.471-1.046L29.417,86.481z M29.274,87.36l-0.209,1.284l-2.411,2.946l1.567-3.472
		L29.274,87.36z M29.515,87.188l0.479-0.345l0.059,0.591l-0.724,0.885L29.515,87.188z M30.083,87.729l0.129,1.295l-1.566,3.469
		l0.616-3.76L30.083,87.729z M30.271,87.499l0.374-0.458l0.21,0.557l-0.47,1.042L30.271,87.499z M30.798,86.855l0.199-0.244
		l0.186,0.258l-0.207,0.459L30.798,86.855z M31.326,87.067l0.346,0.483l-0.184,1.129l-0.405-1.074L31.326,87.067z M31.845,87.79
		l0.759,1.056l0.379,3.789l-1.347-3.563L31.845,87.79z M31.893,87.497l0.095-0.583l0.461,0.377l0.113,1.138L31.893,87.497z
		 M32.678,87.478l1.007,0.824l1.346,3.56l-2.223-3.093L32.678,87.478z M32.649,87.183l-0.059-0.588l0.542,0.245l0.404,1.07
		L32.649,87.183z M32.567,86.355l-0.034-0.336l0.308,0.05l0.186,0.493L32.567,86.355z M33.08,86.109l0.578,0.094l0.685,0.954
		l-1.045-0.472L33.08,86.109z M33.95,86.251l1.268,0.207l2.979,2.438l-3.473-1.567L33.95,86.251z M33.778,86.011l-0.342-0.476
		l0.582-0.059l0.875,0.716L33.778,86.011z M34.313,85.446l1.279-0.128l3.434,1.55l-3.717-0.608L34.313,85.446z M34.084,85.259
		l-0.453-0.371l0.548-0.207l1.03,0.465L34.084,85.259z M34.456,84.576l1.242-0.469l3.759,0.615l-3.831,0.383L34.456,84.576z
		 M36.089,83.959l3.953-1.495l14.29-1.428c0.098,0.718,0.165,1.446,0.197,2.179l-14.267,1.425L36.089,83.959z M40.8,82.178
		l12.728-4.811c0.345,1.126,0.605,2.283,0.776,3.461L40.8,82.178z M39.995,82.258l-4.209,0.42l3.433-2.467l13.489-5.099
		c0.285,0.671,0.536,1.357,0.757,2.053L39.995,82.258z M39.876,79.739l11.087-7.969c0.637,1.008,1.19,2.062,1.662,3.149
		L39.876,79.739z M39.118,80.025l-3.955,1.496l2.675-3.271l11.744-8.441c0.452,0.578,0.875,1.174,1.268,1.784L39.118,80.025z
		 M34.77,81.67l-1.216,0.459l0.533-1.182l3.094-2.223L34.77,81.67z M34.26,80.565l1.739-3.853l9.184-11.223
		c0.579,0.437,1.142,0.903,1.684,1.397l-9.173,11.21L34.26,80.565z M36.331,75.975l5.651-12.52c1.053,0.555,2.068,1.191,3.033,1.907
		L36.331,75.975z M35.819,76.601l-2.679,3.274l0.684-4.17l5.982-13.256c0.678,0.272,1.341,0.575,1.992,0.909L35.819,76.601z
		 M33.954,74.904l2.222-13.577c1.174,0.259,2.321,0.609,3.435,1.044L33.954,74.904z M33.621,75.643l-1.74,3.853l-0.42-4.205
		l2.35-14.362c0.727,0.084,1.448,0.204,2.16,0.354L33.621,75.643z M31.708,79.879l-0.535,1.186l-0.458-1.214l0.615-3.759
		L31.708,79.879z M30.566,79.459l-1.495-3.954l-1.448-14.489c0.718-0.105,1.445-0.177,2.178-0.214l1.447,14.483L30.566,79.459z
		 M28.785,74.748l-4.868-12.88c1.139-0.361,2.307-0.636,3.499-0.819L28.785,74.748z M28.865,75.553l0.422,4.209l-2.467-3.432
		l-5.149-13.62c0.669-0.292,1.351-0.551,2.045-0.78L28.865,75.553z M26.347,75.674l-8.025-11.166
		c1.01-0.653,2.064-1.226,3.156-1.714L26.347,75.674z M26.634,76.43l1.495,3.955l-3.271-2.675l-8.479-11.798
		c0.57-0.459,1.162-0.89,1.768-1.29L26.634,76.43z M28.277,80.778l0.46,1.217l-1.182-0.533l-2.224-3.095L28.277,80.778z
		 M27.173,81.289l-3.852-1.74l-11.223-9.182c0.431-0.584,0.891-1.151,1.379-1.7l11.228,9.188L27.173,81.289z M22.582,79.217
		l-12.475-5.631c0.541-1.058,1.165-2.077,1.868-3.049L22.582,79.217z M23.208,79.73l3.241,2.651l-4.214-0.689l-13.11-5.918
		c0.264-0.68,0.559-1.347,0.887-2L23.208,79.73z M21.436,81.562L8.06,79.372c0.245-1.162,0.577-2.297,0.993-3.401L21.436,81.562z
		 M22.175,81.894l3.891,1.757L21.9,84.067L7.685,81.74c0.078-0.729,0.188-1.45,0.331-2.162L22.175,81.894z M21.895,84.278
		l4.17,0.683l-3.955,1.496L7.825,87.884c-0.11-0.718-0.188-1.444-0.231-2.176L21.895,84.278z M21.351,86.743L8.688,91.53
		c-0.362-1.119-0.639-2.267-0.829-3.439L21.351,86.743z M22.157,86.661l4.205-0.42l-3.433,2.469L9.541,93.771
		c-0.294-0.668-0.557-1.349-0.788-2.042L22.157,86.661z M22.272,89.182l-10.95,7.871c-0.643-0.99-1.209-2.023-1.693-3.091
		L22.272,89.182z M23.029,88.896l3.952-1.494l-2.678,3.272l-11.573,8.319c-0.46-0.57-0.893-1.16-1.295-1.765L23.029,88.896z
		 M27.373,87.253l1.214-0.459l-0.535,1.186l-3.091,2.222L27.373,87.253z M27.88,88.362l-1.74,3.855l-9.002,11
		c-0.584-0.43-1.15-0.891-1.698-1.38l9.008-11.008L27.88,88.362z M25.807,92.954l-5.516,12.223
		c-1.034-0.534-2.031-1.148-2.982-1.835L25.807,92.954z M26.32,92.327l2.675-3.271l-0.683,4.174l-5.838,12.935
		c-0.679-0.267-1.346-0.563-1.997-0.892L26.32,92.327z M28.183,94.031l-2.162,13.205c-1.144-0.248-2.263-0.58-3.35-0.995
		L28.183,94.031z M28.515,93.292l1.739-3.853l0.421,4.208l-2.287,13.975c-0.728-0.082-1.449-0.197-2.16-0.344L28.515,93.292z
		 M30.427,89.058l0.533-1.183l0.459,1.218l-0.614,3.756L30.427,89.058z M31.568,89.484l1.496,3.956l1.407,14.086
		c-0.718,0.105-1.445,0.176-2.178,0.214l-1.409-14.086L31.568,89.484z M33.35,94.197l4.729,12.511
		c-1.107,0.345-2.243,0.609-3.401,0.787L33.35,94.197z M33.27,93.393l-0.421-4.206l2.468,3.434l5.011,13.256
		c-0.67,0.289-1.354,0.545-2.049,0.768L33.27,93.393z M35.791,93.278l7.813,10.871c-0.988,0.626-2.018,1.176-3.083,1.644
		L35.791,93.278z M35.504,92.521l-1.495-3.953l3.272,2.678l8.278,11.518c-0.575,0.452-1.169,0.877-1.78,1.272L35.504,92.521z
		 M33.861,88.176l-0.458-1.215l1.185,0.535l2.222,3.091L33.861,88.176z M34.969,87.669l3.855,1.74l11.002,9.003
		c-0.439,0.58-0.904,1.141-1.399,1.684L37.436,91.1L34.969,87.669z M39.563,89.743l12.265,5.536
		c-0.546,1.029-1.172,2.022-1.874,2.967L39.563,89.743z M38.936,89.23l-3.304-2.704l4.132,0.676l13.078,5.904
		c-0.274,0.676-0.58,1.339-0.917,1.987L38.936,89.23z M40.563,87.333l13.404,2.194c-0.263,1.157-0.613,2.287-1.047,3.385
		L40.563,87.333z M39.825,87l-3.816-1.722l4.248-0.424l14.122,2.311c-0.089,0.727-0.212,1.446-0.367,2.157L39.825,87z
		 M49.451,69.646l-11.099,7.978L47.02,67.03c0.22,0.204,0.437,0.411,0.65,0.623C48.306,68.289,48.899,68.954,49.451,69.646z
		 M33.602,60.907L31.38,74.486l-1.368-13.693c0.346-0.015,0.692-0.023,1.041-0.023C31.909,60.769,32.761,60.816,33.602,60.907z
		 M16.215,66.042l8.017,11.155l-10.615-8.686c0.265-0.292,0.536-0.579,0.817-0.858C15.003,67.083,15.597,66.546,16.215,66.042z
		 M12.861,99.157l10.929-7.856l-8.508,10.398c-0.289-0.263-0.572-0.532-0.85-0.81C13.878,100.335,13.353,99.756,12.861,99.157z
		 M28.596,107.646l2.159-13.192l1.329,13.296c-0.342,0.015-0.686,0.023-1.032,0.023C30.226,107.773,29.407,107.73,28.596,107.646z
		 M45.724,102.632l-7.815-10.873l10.375,8.49c-0.2,0.217-0.405,0.431-0.615,0.641C47.049,101.51,46.399,102.091,45.724,102.632z"/>
	<path fill="#1E1E1C" d="M63.68,80.98l-0.003-0.002h-0.018c-0.24-0.023-0.483-0.035-0.73-0.035c-0.239,0-0.476,0.011-0.711,0.033
		l-31.377-0.032l-0.001,0.005c-0.043-0.001-0.084-0.006-0.127-0.006c-1.956,0-3.542,1.586-3.542,3.541
		c0,1.686,1.177,3.093,2.755,3.452l-0.001,0.003l30.637,8.225c0.217,0.069,0.439,0.129,0.664,0.178l0.049,0.013l0.005-0.001
		c0.531,0.115,1.084,0.177,1.65,0.177c4.306,0,7.795-3.489,7.795-7.795C70.724,84.686,67.632,81.357,63.68,80.98z M60.446,94.08
		c0.107-0.305,0.442-0.468,0.747-0.361c0.557,0.195,1.141,0.292,1.736,0.292c0.008,0,0.015,0,0.022,0
		c0.316,0.009,0.57,0.268,0.57,0.587c0,0.323-0.262,0.587-0.586,0.587c-0.004,0-0.008-0.001-0.013-0.001
		c-0.725-0.001-1.437-0.122-2.115-0.357C60.501,94.719,60.34,94.386,60.446,94.08z M58.632,90.692l2.196-0.597
		c0.182,0.281,0.417,0.524,0.693,0.712l-0.651,2.18C59.882,92.505,59.088,91.691,58.632,90.692z M67.094,86.511
		c0.356,0.664,0.558,1.422,0.558,2.226c0,0.325-0.033,0.64-0.095,0.946l-2.13-0.809c0.002-0.046,0.007-0.091,0.007-0.137
		c0-0.297-0.056-0.579-0.15-0.844L67.094,86.511z M66.11,83.781c0.2-0.253,0.569-0.297,0.822-0.096
		c0.57,0.452,1.055,0.991,1.444,1.603c0.173,0.274,0.093,0.636-0.181,0.81c-0.098,0.061-0.205,0.091-0.314,0.091
		c-0.193,0-0.384-0.095-0.495-0.272c-0.318-0.502-0.716-0.944-1.182-1.314C65.952,84.403,65.909,84.034,66.11,83.781z
		 M65.403,83.392c-0.084,0.241-0.311,0.393-0.554,0.393c-0.062,0-0.127-0.01-0.192-0.032c-0.553-0.192-1.135-0.29-1.728-0.29
		c-0.006,0-0.011,0-0.017,0c-0.323,0-0.585-0.262-0.585-0.586c0-0.323,0.262-0.586,0.586-0.586c0.004,0,0.011,0.001,0.019,0.001
		c0.723,0.001,1.433,0.12,2.11,0.354C65.346,82.751,65.508,83.085,65.403,83.392z M62.929,84.015c0.847,0,1.641,0.225,2.329,0.617
		l-1.426,1.773c-0.281-0.11-0.584-0.171-0.904-0.171c-0.024,0-0.05,0.003-0.074,0.003l-0.755-2.148
		C62.369,84.041,62.646,84.015,62.929,84.015z M63.46,93.428l0.11-2.273c0.328-0.088,0.629-0.238,0.89-0.44l1.871,1.293
		C65.587,92.783,64.583,93.304,63.46,93.428z M65.738,93.203c0.502-0.317,0.946-0.713,1.316-1.179
		c0.202-0.252,0.571-0.294,0.824-0.093c0.253,0.202,0.294,0.572,0.093,0.824c-0.453,0.569-0.993,1.051-1.608,1.439
		c-0.096,0.062-0.205,0.09-0.312,0.09c-0.195,0-0.384-0.096-0.496-0.274C65.382,93.737,65.464,93.376,65.738,93.203z M67.908,90.48
		c0.196-0.558,0.296-1.145,0.296-1.742l-0.001-0.021c0-0.324,0.262-0.586,0.587-0.586c0.323,0,0.586,0.262,0.586,0.586v0.015
		c0,0.736-0.121,1.451-0.36,2.135c-0.084,0.241-0.31,0.393-0.553,0.393c-0.064,0-0.129-0.011-0.193-0.033
		C67.964,91.119,67.803,90.785,67.908,90.48z M60.528,88.037l-2.275,0.054c0.153-1.116,0.698-2.11,1.491-2.835l1.246,1.901
		C60.78,87.413,60.623,87.711,60.528,88.037z M60.112,84.277c-0.501,0.318-0.944,0.715-1.315,1.182
		c-0.114,0.146-0.286,0.221-0.458,0.221c-0.128,0-0.257-0.042-0.365-0.127c-0.252-0.202-0.296-0.57-0.093-0.823
		c0.452-0.568,0.992-1.054,1.605-1.442c0.274-0.173,0.635-0.092,0.809,0.181C60.467,83.742,60.386,84.104,60.112,84.277z
		 M57.947,87.005c-0.193,0.556-0.292,1.139-0.292,1.733c0,0.323-0.262,0.591-0.586,0.591c-0.324,0-0.585-0.257-0.585-0.58v-0.011
		c0-0.725,0.12-1.438,0.356-2.116c0.106-0.306,0.439-0.468,0.746-0.362C57.891,86.366,58.052,86.7,57.947,87.005z M57.659,91.368
		c0.274-0.174,0.635-0.091,0.809,0.182c0.316,0.503,0.714,0.945,1.179,1.315c0.253,0.202,0.295,0.57,0.094,0.824
		c-0.116,0.145-0.286,0.221-0.458,0.221c-0.129,0-0.258-0.042-0.365-0.128c-0.568-0.452-1.053-0.992-1.441-1.606
		C57.302,91.903,57.384,91.541,57.659,91.368z M31.345,87.967c1.654-0.3,2.908-1.743,2.908-3.483c0-1.412-0.828-2.628-2.024-3.197
		l28.315,0.028c-3.137,1.009-5.409,3.949-5.409,7.422c0,2.778,1.453,5.214,3.64,6.594L31.345,87.967z"/>
	<path fill="#1E1E1C" d="M112.164,82.078c-0.131,0-0.258,0.016-0.383,0.038c-0.229-0.299-0.459-0.601-0.672-0.916
		c-0.576-0.851-1.112-1.736-1.61-2.644c-0.988-1.816-1.884-3.695-2.587-5.622c-0.054-0.144-0.105-0.291-0.155-0.437l-3.802-11.584
		l-2.281-6.923l0.009-0.004c0.445-0.151,0.684-0.64,0.532-1.083l-3.584-10.468c-0.139-0.407-0.559-0.637-0.97-0.558l-0.608-1.828
		c0.393-0.175,0.766-0.337,0.96-0.41c0.522-0.197,2.272-0.546,2.272-0.546c0.054,0.025,0.098,0.038,0.136,0.048
		c0.257,0.163,0.562,0.259,0.887,0.259c0.92,0,1.665-0.746,1.665-1.665c0-0.459-0.187-0.875-0.488-1.177l0,0
		c-0.342-0.456-0.874-1.395-0.99-1.664c-0.135-0.313-0.571-1.548-0.614-1.719c0.021-0.021,0.042-0.053,0.06-0.093
		c0.109-0.142,0.175-0.319,0.175-0.512c0-0.384-0.256-0.706-0.605-0.812c-0.487-0.456-1.383-1.285-2.259-1.472
		c-0.023-0.006-0.049-0.011-0.071-0.015c-0.033-0.005-0.066-0.011-0.099-0.015c-0.062-0.008-0.124-0.012-0.187-0.012
		c-0.896,0-1.622,0.726-1.622,1.622c0,0.196,0.037,0.381,0.1,0.555c-0.064,0.173-0.1,0.36-0.1,0.555
		c0,0.895,0.727,1.621,1.622,1.621c0.496,0,0.938-0.222,1.236-0.574c0.103,0.018,0.199,0.086,0.286,0.233
		c0.235,0.399,0.433,0.879,0.478,1.175c-0.369,0.155-0.669,0.442-0.846,0.8c-1.047,0.149-3.678,0.335-4.069,0.499
		c-0.442,0.184-1.551,0.91-1.707,1.052c-0.157,0.143-0.611,0.839-0.043,0.996c0.26,0.072,0.54,0.082,0.768,0.075l0.267,0.758
		c-0.028,0.011-0.06,0.021-0.095,0.035c-0.299,0.114-0.597,0.47-0.584,0.64c0.015,0.17,0.156,0.569,0.669,0.626
		c0.136,0.015,0.297,0.005,0.462-0.016l0.625,1.774c-0.373,0.188-0.564,0.629-0.425,1.035l0.238,0.693
		c-1.039,0.058-2.079,0.114-3.119,0.164l-2.787,0.137l-2.788,0.122l-2.787,0.122c-0.938-0.137-1.864-0.031-2.794-0.005l-5.575,0.239
		c-1.859,0.074-3.716,0.182-5.573,0.272l-2.785,0.159l-1.393,0.078l-0.349,0.021c-0.115,0.009-0.233,0.004-0.347,0.045
		c-0.115,0.038-0.227,0.107-0.342,0.154c-0.113,0.053-0.229,0.06-0.346,0.065c-1.857,0.105-3.714,0.205-5.573,0.28
		c-1.759,0.077-3.519,0.13-5.28,0.161l-0.041-0.146l0.072-0.021c0.182-0.054,0.285-0.245,0.232-0.427l-0.194-0.658
		c-0.055-0.182-0.246-0.285-0.427-0.231l-0.056,0.016l-2.491-8.815l1.751-0.091c0.434-0.021,1.025-0.268,1.346-0.56l2.322-2.106
		c0.779-0.086,1.46-0.106,1.886-0.036c0.674,0.11,2.539,0.192,2.795,0.064c0.153-0.078,0.299-2.176-3.243-2.176
		c-3.542,0-8.257,0.042-8.769,0.042c-0.512,0-4.206-0.555-4.779-0.725c-0.669-0.199-3.414-0.725-3.799-0.555
		c-0.384,0.17-0.361,1.524,0.257,2.176c0.612,0.648,1.997,1.336,2.812,1.685l1.767,1.949c0.29,0.321,0.841,0.557,1.282,0.557
		c0.021,0,0.042-0.001,0.061-0.001l2.29-0.119c0.078,0.079,0.132,0.148,0.155,0.201l0.003,0.013l2.551,9.03l-0.857,0.253
		c-0.182,0.054-0.285,0.245-0.232,0.426l0.194,0.658c0.054,0.182,0.246,0.286,0.427,0.232l0.841-0.249l0.362,1.281L30.21,83.261
		l1.307,0.753l-0.064-0.008l-0.118,0.872l31.611,4.381l0.088-0.66l0.108,0.018l0.072-0.424l0.705,0.638
		c0.804-0.729,1.593-1.471,2.375-2.22l1.17-1.127l1.157-1.138c0.775-0.756,1.531-1.528,2.295-2.293
		c0.764-0.765,1.516-1.54,2.27-2.316c3.013-3.1,5.931-6.286,8.877-9.446l4.383-4.774l4.349-4.802
		c2.164-2.417,4.32-4.839,6.448-7.286l0.256,0.749c0.153,0.443,0.64,0.682,1.085,0.531l0.01-0.003l1.431,4.028l1.008,2.841
		l0.003,0.009l0.013,0.036l1.047,2.937l1.057,2.958l1.06,2.97c0.005,0.016,0.011,0.032,0.016,0.048l0.006,0.014l0.35,0.981
		c0.074,0.209,0.149,0.417,0.223,0.626l0.09,0.252l0.09,0.248c0.011,0.03,0.021,0.059,0.033,0.089l0.015,0.042
		c0.006,0.018,0.013,0.034,0.021,0.053c0.077,0.208,0.154,0.417,0.236,0.626c0.382,0.994,0.785,1.978,1.214,2.953
		c0.427,0.974,0.88,1.939,1.375,2.888c0.493,0.947,1.015,1.884,1.61,2.789c0.243,0.367,0.504,0.727,0.78,1.08
		c-0.19,0.325-0.307,0.698-0.307,1.101c0,1.214,0.984,2.198,2.198,2.198c1.213,0,2.197-0.984,2.197-2.198
		C114.362,83.062,113.378,82.078,112.164,82.078z M45.078,35.846c-0.298,0.018-0.735-0.166-0.937-0.387l-1.105-1.219
		c0.614,0.192,1.522,0.403,2.739,0.403c-0.089,0.151-0.142,0.325-0.142,0.512c0,0.248,0.09,0.473,0.238,0.65L45.078,35.846z
		 M48.448,34.658c0.173-0.008,0.333-0.025,0.506-0.057c0.683-0.128,2.347-0.49,2.347-0.49c0.792-0.255,1.738-0.468,2.638-0.611
		l-1.771,1.606c-0.234,0.212-0.713,0.411-1.029,0.428l-1.9,0.098C49.06,35.266,48.766,34.936,48.448,34.658z M32.405,84.133
		l0.41-0.724l20.653,3.546L32.405,84.133z M33.278,82.588L50.68,51.849c0.268-0.365,0.764-0.381,0.886,0.062
		c0.127,0.469,1.224,4.016,1.307,4.196c0.043,0.093,0.234,0.047,0.245,0.043l8.823,31.226L33.278,82.588z M87.994,58.179
		l-4.344,4.808l-4.312,4.839c-2.85,3.246-5.727,6.47-8.51,9.777c-0.696,0.827-1.393,1.653-2.077,2.49
		c-0.685,0.837-1.379,1.666-2.053,2.513l-1.016,1.266l-1.004,1.277c-0.347,0.446-0.694,0.892-1.037,1.342L53.45,50.418
		c-0.106-0.528-0.061-1.142,0.737-1.208c-0.003-0.002-0.056-0.014-0.14-0.028c1.227-0.088,2.454-0.169,3.682-0.234
		c1.857-0.103,3.715-0.185,5.575-0.26c0.116-0.006,0.232-0.011,0.35,0.031c0.118,0.037,0.238,0.095,0.355,0.122
		c0.118,0.028,0.233,0.013,0.35,0.011l0.349-0.014l1.393-0.055l2.788-0.112c1.859-0.089,3.717-0.163,5.573-0.27l5.572-0.301
		c0.928-0.062,1.86-0.047,2.779-0.275l2.786-0.149l2.786-0.149l0.916-0.043l6.577,1.954l0.061,0.18
		C93.257,52.442,90.621,55.305,87.994,58.179z"/>
</g>
</svg>
